<?xml version="1.0" encoding="utf-8"?>
<!-- Generator: Adobe Illustrator 25.4.1, SVG Export Plug-In . SVG Version: 6.00 Build 0)  -->
<svg version="1.1" id="レイヤー_7" xmlns="http://www.w3.org/2000/svg" xmlns:xlink="http://www.w3.org/1999/xlink" x="0px"
	 y="0px" viewBox="0 0 432 132" style="enable-background:new 0 0 432 132;" xml:space="preserve">
<style type="text/css">
	.st0{fill:#231815;}
	.st1{fill-rule:evenodd;clip-rule:evenodd;fill:url(#SVGID_1_);}
	.st2{fill-rule:evenodd;clip-rule:evenodd;fill:#FFFFFF;}
</style>
<g>
	<g>
		<path class="st0" d="M130.93,74.39h-15.98l-3.84,11.33h-6.77l15.14-41.92h7.03l15.14,41.92h-6.88L130.93,74.39z M116.6,69.16
			h12.67l-6.24-18.39h-0.17L116.6,69.16z"/>
		<path class="st0" d="M174.33,70.44c0,9.5-5.08,15.6-12.75,15.6c-4.35,0-7.81-1.95-9.62-5.35h-0.15v15.14h-6.27V55.16h6.07v5.08
			h0.12c1.74-3.28,5.46-5.4,9.73-5.4C169.22,54.84,174.33,60.97,174.33,70.44z M167.88,70.44c0-6.19-3.2-10.26-8.08-10.26
			c-4.79,0-8.02,4.15-8.02,10.26c0,6.16,3.22,10.28,8.02,10.28C164.69,80.72,167.88,76.68,167.88,70.44z"/>
		<path class="st0" d="M207.97,70.44c0,9.5-5.08,15.6-12.75,15.6c-4.35,0-7.81-1.95-9.62-5.35h-0.15v15.14h-6.27V55.16h6.07v5.08
			h0.12c1.74-3.28,5.46-5.4,9.73-5.4C202.86,54.84,207.97,60.97,207.97,70.44z M201.52,70.44c0-6.19-3.2-10.26-8.08-10.26
			c-4.79,0-8.02,4.15-8.02,10.26c0,6.16,3.22,10.28,8.02,10.28C198.33,80.72,201.52,76.68,201.52,70.44z"/>
		<path class="st0" d="M213.05,43.8h6.28v41.92h-6.28V43.8z"/>
		<path class="st0" d="M251.99,76.74c-0.84,5.55-6.25,9.36-13.16,9.36c-8.89,0-14.41-5.96-14.41-15.51c0-9.59,5.55-15.8,14.15-15.8
			c8.46,0,13.77,5.81,13.77,15.08V72h-21.59v0.38c0,5.23,3.28,8.66,8.22,8.66c3.48,0,6.22-1.65,7.06-4.3H251.99z M230.78,67.62
			h15.28c-0.15-4.68-3.14-7.76-7.5-7.76C234.24,59.86,231.1,63,230.78,67.62z"/>
		<path class="st0" d="M306.5,85.72V54.87h-0.2L293.66,85.4h-4.82l-12.67-30.53h-0.2v30.85h-5.93V43.8h7.53l13.57,33.09h0.23
			L304.9,43.8h7.55v41.92H306.5z"/>
		<path class="st0" d="M345.91,85.72h-6.01v-5.26h-0.15c-1.74,3.66-4.8,5.61-9.47,5.61c-6.65,0-10.72-4.3-10.72-11.3V55.16h6.27
			v18.39c0,4.65,2.21,7.12,6.54,7.12c4.53,0,7.26-3.14,7.26-7.9V55.16h6.28V85.72z"/>
		<path class="st0" d="M363.78,54.81c6.77,0,11.62,3.75,11.77,9.15h-5.9c-0.26-2.7-2.55-4.35-6.04-4.35c-3.4,0-5.66,1.57-5.66,3.95
			c0,1.83,1.51,3.05,4.68,3.83l5.14,1.19c6.16,1.48,8.48,3.75,8.48,8.22c0,5.52-5.23,9.3-12.7,9.3c-7.21,0-12.06-3.69-12.52-9.27
			h6.21c0.44,2.93,2.79,4.5,6.6,4.5c3.75,0,6.1-1.54,6.1-3.98c0-1.89-1.16-2.9-4.35-3.72l-5.46-1.34c-5.52-1.34-8.31-4.16-8.31-8.4
			C351.81,58.5,356.66,54.81,363.78,54.81z"/>
		<path class="st0" d="M381.15,47.11c0-2,1.63-3.6,3.63-3.6c2.03,0,3.66,1.6,3.66,3.6c0,1.98-1.63,3.57-3.66,3.57
			C382.78,50.68,381.15,49.08,381.15,47.11z M381.65,55.16h6.27v30.56h-6.27V55.16z"/>
		<path class="st0" d="M414.96,65.67c-0.55-3.22-3.08-5.63-7.2-5.63c-4.82,0-8.02,4.04-8.02,10.4c0,6.51,3.23,10.43,8.08,10.43
			c3.89,0,6.45-1.95,7.15-5.49H421c-0.7,6.42-5.84,10.72-13.25,10.72c-8.72,0-14.41-5.96-14.41-15.66c0-9.5,5.69-15.66,14.35-15.66
			c7.84,0,12.73,4.94,13.25,10.89H414.96z"/>
	</g>
</g>
<g>
	<g>
		<linearGradient id="SVGID_1_" gradientUnits="userSpaceOnUse" x1="43.4732" y1="108.144" x2="43.4732" y2="25.3576">
			<stop  offset="0" style="stop-color:#FA233B"/>
			<stop  offset="1" style="stop-color:#FB5C74"/>
		</linearGradient>
		<path class="st1" d="M85.95,50.1c0-1.01,0-2.03-0.01-3.04c-0.01-0.85-0.02-1.71-0.04-2.56c-0.05-1.86-0.16-3.74-0.49-5.58
			c-0.34-1.87-0.88-3.61-1.75-5.31c-0.85-1.67-1.96-3.19-3.28-4.52c-1.32-1.32-2.85-2.43-4.52-3.28c-1.7-0.86-3.44-1.41-5.3-1.75
			c-1.84-0.33-3.72-0.44-5.58-0.49c-0.85-0.02-1.71-0.03-2.56-0.04c-1.01-0.01-2.03-0.01-3.04-0.01h-31.8c-1.01,0-2.03,0-3.04,0.01
			c-0.85,0.01-1.71,0.02-2.56,0.04c-1.86,0.05-3.74,0.16-5.58,0.49c-1.87,0.34-3.61,0.88-5.3,1.75c-1.67,0.85-3.19,1.96-4.52,3.28
			c-1.32,1.32-2.43,2.85-3.28,4.52c-0.86,1.7-1.41,3.44-1.75,5.31c-0.33,1.84-0.44,3.72-0.49,5.58c-0.02,0.85-0.03,1.71-0.04,2.56
			C1,48.07,1,49.08,1,50.1v31.8c0,1.01,0,2.03,0.01,3.04c0.01,0.85,0.02,1.71,0.04,2.56c0.05,1.86,0.16,3.74,0.49,5.58
			c0.34,1.87,0.88,3.61,1.75,5.31c0.85,1.67,1.96,3.19,3.28,4.52c1.32,1.32,2.85,2.43,4.52,3.28c1.7,0.86,3.44,1.41,5.3,1.75
			c1.84,0.33,3.72,0.44,5.58,0.49c0.85,0.02,1.71,0.03,2.56,0.04c1.01,0.01,2.03,0.01,3.04,0.01h31.8c1.01,0,2.03,0,3.04-0.01
			c0.85-0.01,1.71-0.02,2.56-0.04c1.86-0.05,3.74-0.16,5.58-0.49c1.87-0.34,3.61-0.88,5.3-1.75c1.67-0.85,3.19-1.96,4.52-3.28
			c1.32-1.32,2.43-2.85,3.28-4.52c0.86-1.7,1.41-3.44,1.75-5.31c0.33-1.84,0.44-3.72,0.49-5.58c0.02-0.85,0.03-1.71,0.04-2.56
			c0.01-1.01,0.01-2.03,0.01-3.04V50.1z"/>
	</g>
	<g id="Glyph_2_">
		<g>
			<path class="st2" d="M61.05,36.5c-0.21,0.02-2.03,0.34-2.25,0.39l-25.25,5.09l-0.01,0c-0.66,0.14-1.17,0.37-1.57,0.71
				c-0.48,0.4-0.75,0.97-0.85,1.64c-0.02,0.14-0.06,0.43-0.06,0.85c0,0,0,25.79,0,31.6c0,0.74-0.06,1.46-0.56,2.07
				c-0.5,0.61-1.12,0.8-1.84,0.94c-0.55,0.11-1.1,0.22-1.65,0.33c-2.09,0.42-3.44,0.71-4.67,1.18c-1.17,0.46-2.06,1.04-2.76,1.77
				c-1.39,1.46-1.95,3.43-1.76,5.28c0.17,1.58,0.88,3.09,2.09,4.21c0.82,0.75,1.85,1.33,3.07,1.57c1.26,0.25,2.6,0.16,4.56-0.23
				c1.04-0.21,2.02-0.54,2.95-1.09c0.92-0.54,1.71-1.27,2.32-2.15c0.62-0.89,1.02-1.87,1.24-2.91c0.23-1.08,0.28-2.05,0.28-3.13
				l0-27.41c0-1.47,0.42-1.86,1.6-2.14c0,0,20.99-4.23,21.96-4.42c1.37-0.26,2.01,0.13,2.01,1.56l0,18.71
				c0,0.74-0.01,1.49-0.51,2.11c-0.5,0.61-1.12,0.8-1.84,0.94c-0.55,0.11-1.1,0.22-1.65,0.33c-2.09,0.42-3.44,0.71-4.67,1.18
				c-1.17,0.46-2.06,1.04-2.76,1.77c-1.39,1.46-2,3.43-1.81,5.28c0.17,1.58,0.93,3.09,2.14,4.21c0.82,0.75,1.85,1.31,3.07,1.56
				c1.26,0.25,2.6,0.16,4.56-0.23c1.04-0.21,2.02-0.52,2.95-1.07c0.92-0.54,1.71-1.27,2.32-2.15c0.62-0.89,1.02-1.87,1.24-2.91
				c0.23-1.08,0.24-2.05,0.24-3.13V38.74C63.18,37.28,62.42,36.39,61.05,36.5z"/>
		</g>
	</g>
</g>
</svg>
