<?xml version="1.0" encoding="utf-8"?>
<!-- Generator: Adobe Illustrator 25.4.1, SVG Export Plug-In . SVG Version: 6.00 Build 0)  -->
<svg version="1.1" id="レイヤー_1" xmlns="http://www.w3.org/2000/svg" xmlns:xlink="http://www.w3.org/1999/xlink" x="0px"
	 y="0px" viewBox="0 0 60 60" style="enable-background:new 0 0 60 60;" xml:space="preserve">
<style type="text/css">
	.st0{fill:#FFFFFF;}
</style>
<g>
	<line class="st0" x1="4.07" y1="4.07" x2="55.93" y2="55.93"/>
	<path class="st0" d="M55.93,60c-1.04,0-2.08-0.4-2.88-1.19L1.19,6.95c-1.59-1.59-1.59-4.17,0-5.76c1.59-1.59,4.17-1.59,5.76,0
		l51.85,51.85c1.59,1.59,1.59,4.17,0,5.76C58.01,59.6,56.97,60,55.93,60z"/>
</g>
<g>
	<line class="st0" x1="55.93" y1="4.07" x2="4.07" y2="55.93"/>
	<path class="st0" d="M4.07,60c-1.04,0-2.08-0.4-2.88-1.19c-1.59-1.59-1.59-4.17,0-5.76L53.05,1.19c1.59-1.59,4.17-1.59,5.76,0
		c1.59,1.59,1.59,4.17,0,5.76L6.95,58.81C6.16,59.6,5.12,60,4.07,60z"/>
</g>
</svg>
