<?xml version="1.0" encoding="utf-8"?>
<!-- Generator: Adobe Illustrator 25.4.1, SVG Export Plug-In . SVG Version: 6.00 Build 0)  -->
<svg version="1.1" id="レイヤー_1" xmlns="http://www.w3.org/2000/svg" xmlns:xlink="http://www.w3.org/1999/xlink" x="0px"
	 y="0px" viewBox="0 0 1644 1044" style="enable-background:new 0 0 1644 1044;" xml:space="preserve">
<style type="text/css">
	.st0{fill:#D4D4D4;}
</style>
<path class="st0" d="M1581.64,779.37c-13.7,9.26-34.38,96.97-78.79,138.86c-90.78,85.63-184.99,74.06-301.47,50.92
	c-125-24.84-453.92-141.18-459.06-101.83c-2.53,19.34,309.69,102.6,408.84,176.68h349.08
	C1596.24,938.5,1605.58,763.19,1581.64,779.37z"/>
<path class="st0" d="M1181.05,43.19c-10.27,81-212.4,30.09-217.54,71.74c-5.14,41.66,346,69.43,546.41,319.39
	c128.49,160.25,65.09-6.94-30.83-108.78c-95.92-101.84-135.85-221.96-37.68-277.73C1463.98,35,1483.1,18.58,1500,0h-348.61
	C1171.43,14.97,1182.78,29.57,1181.05,43.19z"/>
<path class="st0" d="M92.8,290.06c-77.65,27.77-162.16,145.04,0,58.63c162.15-86.41,433.93,6.17,475.04-24.69
	c41.11-30.86-169.52-125.02-264.93-160.47c-91.35-33.94-75.37,18.51,0,70.98C378.28,286.98,170.45,262.29,92.8,290.06z"/>
<path class="st0" d="M572.93,760.1c123.33-197.5,799.35,308.59,984.34,3.08c26.62-43.95,30.3-84.14,17.11-120.7
	c-1.73-7.19-3.79-14.57-6.21-22.22c-111.9-354.88-954.65-462.88-897.55-543.12C727.71-3.09,909.55,110.18,897,0H359.03
	c93.7,44.81,203.49,97.24,320.72,160.45c266,143.41,269.48,404.27-344.87,293.17c-86.09-15.57-161.93-10.53-226.33,6.96
	c115.62,0,206.51,111.93,206.51,111.93c35.79,33.54,47.58,66.14,38.03,96.11c-11.88,37.29-56.79,70.5-129.6,96.39
	C-3.45,845.71,82.15,911.6,359,1044h538C887.86,963.77,449.6,957.59,572.93,760.1z"/>
</svg>
