<?xml version="1.0" encoding="utf-8"?>
<!-- Generator: Adobe Illustrator 25.4.1, SVG Export Plug-In . SVG Version: 6.00 Build 0)  -->
<svg version="1.1" id="レイヤー_1" xmlns="http://www.w3.org/2000/svg" xmlns:xlink="http://www.w3.org/1999/xlink" x="0px"
	 y="0px" viewBox="0 0 400 100" style="enable-background:new 0 0 400 100;" xml:space="preserve">
<style type="text/css">
	.st0{fill:#A6A6A6;}
	.st1{fill:#FFFFFF;}
	.st2{fill:#D4D4D4;}
</style>
<g>
	<path class="st0" d="M369.33,100H30.67C13.73,100,0,86.27,0,69.33V30.67C0,13.73,13.73,0,30.67,0h338.66
		C386.27,0,400,13.73,400,30.67v38.66C400,86.27,386.27,100,369.33,100z"/>
</g>
<g>
	<g>
		<g>
			<path class="st1" d="M128.71,43.63c-0.65-1.97-1.15-2.95-1.88-3.81c-0.98-1.1-2.62-1.76-4.3-1.76c-3.03,0-4.79,1.43-4.79,3.89
				c0,1.39,0.57,2.42,1.88,3.19c0.78,0.49,2.21,1.07,5.69,2.37c3.48,1.31,4.26,1.64,5.49,2.46c2.29,1.47,3.32,3.68,3.32,7.08
				c0,3.07-1.23,5.69-3.32,7.24c-1.92,1.39-4.42,2.17-7.12,2.17c-3.03,0-5.65-0.78-7.74-2.25c-2.21-1.6-3.36-3.32-4.54-6.88
				l5.08-1.64c0.57,1.92,1.11,2.99,1.97,4.05c1.19,1.35,3.11,2.17,5.24,2.17c2.95,0,5.04-1.76,5.04-4.3c0-1.47-0.74-2.78-1.88-3.52
				c-0.78-0.49-0.86-0.49-6.71-2.7c-2.58-1.02-4.59-2.21-5.73-3.4c-1.23-1.31-2.01-3.48-2.01-5.65c0-5.4,4.01-8.84,10.32-8.84
				c3.32,0,6.34,1.19,8.19,3.23c1.23,1.35,1.97,2.7,2.91,5.36L128.71,43.63z"/>
			<path class="st1" d="M162.53,34.05v4.5h-8.68v27.39h-5.4V38.56h-8.72v-4.5H162.53z"/>
			<path class="st1" d="M180.96,34.05c3.81,0,6.26,0.7,7.99,2.21c1.6,1.43,2.54,3.72,2.54,6.18c0,4.05-2,6.71-5.94,7.86
				c2.09,0.9,2.62,1.72,4.71,7.21l3.19,8.43h-5.61l-2.7-7.9c-1.6-4.67-2.78-6.06-5.16-6.06h-5.2v13.96h-5.12V34.05H180.96z
				 M179.49,47.69c4.67,0,6.8-1.51,6.8-4.83c0-1.39-0.53-2.62-1.43-3.32c-0.94-0.7-2.82-1.1-5.4-1.1h-4.67v9.25H179.49z"/>
			<path class="st1" d="M220.23,34.05v4.34h-14.74v8.68h11.26v4.3h-11.26v10.15h15.43v4.42h-20.72V34.05H220.23z"/>
			<path class="st1" d="M231.24,65.95h-5.32l9.91-31.89h6.22l9.91,31.89h-5.4l-2.7-9.34h-9.87L231.24,65.95z M242.67,52.11
				l-1.56-5.57c-0.25-0.82-0.82-3.11-1.06-4.22c-0.62-2.42-0.62-2.42-0.9-3.6h-0.41c-0.98,4.05-1.51,6.18-1.88,7.49l-1.68,5.89
				H242.67z"/>
			<path class="st1" d="M287.75,65.95h-4.91V54.2c0-3.64,0.08-8.27,0.2-15.27h-0.57c-0.65,3.07-2.05,9.41-2.46,11.09l-3.85,15.93
				h-5.86l-4.01-16.54c-0.74-2.95-1.27-5.36-2.29-10.48h-0.61c0.2,10.77,0.25,13.76,0.25,15.27v11.75h-4.87V34.05h8.19l4.59,19.53
				c0.45,1.88,1.02,4.95,1.39,7.49h0.57c0.25-1.27,0.25-1.27,0.61-3.56c0.2-1.15,0.7-3.48,0.86-4.26l4.42-19.2h8.35V65.95z"/>
			<path class="st1" d="M302.45,65.95h-5.4V34.05h5.4V65.95z"/>
			<path class="st1" d="M334.35,65.95h-6.18l-7.98-18.55c-0.25-0.57-1.6-4.01-2.05-5.2c-0.74-1.92-0.74-1.92-1.11-2.87h-0.53
				c0.12,6.59,0.2,11.14,0.2,14.86v11.75h-4.95V34.05h7.45l7.16,17.11c0.65,1.52,1.8,4.75,3.03,8.56h0.49
				c-0.29-4.14-0.49-9.62-0.49-13.72V34.05h4.95V65.95z"/>
			<path class="st1" d="M361.41,44.74c-0.45-1.92-0.86-3.03-1.52-4.05c-1.06-1.6-2.78-2.5-4.79-2.5c-2.33,0-3.93,0.74-5.24,2.37
				c-1.64,2.09-2.37,5.04-2.37,9.38c0,7.86,2.66,11.91,7.82,11.91c2.29,0,3.93-0.7,5.16-2.25c0.82-1.02,1.43-2.42,1.43-3.24v-2.7h-7
				v-4.17h11.91v16.46h-4.79v-1.19c0-0.25,0.04-0.98,0.08-2.17c-0.94,1.51-1.76,2.25-3.15,2.95c-1.15,0.61-2.82,0.94-4.5,0.94
				c-7.61,0-12.4-6.34-12.4-16.42c0-10.48,4.79-16.54,13.06-16.54c3.72,0,6.67,1.19,8.72,3.6c1.39,1.6,2.17,3.32,2.87,6.3
				L361.41,44.74z"/>
		</g>
	</g>
	<circle class="st2" cx="59.3" cy="50" r="34.09"/>
	<polygon class="st1" points="82.03,50 47.93,30.32 47.93,69.68 	"/>
</g>
</svg>
