<?xml version="1.0" encoding="utf-8"?>
<!-- Generator: Adobe Illustrator 25.4.1, SVG Export Plug-In . SVG Version: 6.00 Build 0)  -->
<svg version="1.1" id="レイヤー_1" xmlns="http://www.w3.org/2000/svg" xmlns:xlink="http://www.w3.org/1999/xlink" x="0px"
	 y="0px" viewBox="0 0 120 120" style="enable-background:new 0 0 120 120;" xml:space="preserve">
<style type="text/css">
	.st0{fill:#7E7F7F;}
</style>
<g>
	<g>
		<g>
			<path class="st0" d="M40.2,21.47l66.39-14.53v72.29c0,11.8-9.99,19.29-20.77,19.29c-5.22,0-10.55-2.84-10.55-8.4
				c0-8.05,10.33-15.66,19.63-15.66c2.61,0,5.45,0.57,7.15,1.48V34.43L44.74,46.91v46.85c0,11.8-9.99,19.29-20.77,19.29
				c-5.22,0-10.55-2.84-10.55-8.4c0-8.05,10.33-15.66,19.63-15.66c2.61,0,5.45,0.57,7.15,1.48V21.47z"/>
			<path class="st0" d="M23.97,116c-6.71,0-13.5-3.9-13.5-11.35c0-10.31,12.35-18.61,22.58-18.61c1.42,0,2.86,0.14,4.2,0.4V21.47
				c0-1.39,0.97-2.58,2.32-2.88l66.39-14.53c0.88-0.19,1.78,0.03,2.48,0.58c0.69,0.56,1.1,1.4,1.1,2.3v72.29
				c0,13.92-12.06,22.24-23.72,22.24c-6.71,0-13.5-3.9-13.5-11.35c0-10.31,12.35-18.61,22.58-18.61c1.42,0,2.85,0.14,4.2,0.4V38.09
				L47.68,49.29v44.48C47.68,107.68,35.63,116,23.97,116z M33.05,91.94c-7.95,0-16.68,6.65-16.68,12.71c0,4.31,4.98,5.45,7.61,5.45
				c8.64,0,17.82-5.73,17.82-16.34v-0.81c-0.02,0.02-0.05,0.03-0.07,0.05c-0.88,0.54-1.99,0.56-2.9,0.07
				C37.56,92.41,35.19,91.94,33.05,91.94z M94.9,77.42c-7.95,0-16.69,6.65-16.69,12.71c0,4.31,4.98,5.45,7.61,5.45
				c8.64,0,17.82-5.73,17.82-16.34v-0.81c-0.02,0.02-0.05,0.03-0.08,0.05c-0.88,0.54-1.99,0.56-2.9,0.07
				C99.41,77.88,97.04,77.42,94.9,77.42z M43.14,23.85v20.59c0.29-0.18,0.61-0.32,0.97-0.4l57.31-12.48
				c0.77-0.17,1.57-0.02,2.22,0.4V10.61L43.14,23.85z"/>
		</g>
	</g>
</g>
</svg>
