<?xml version="1.0" encoding="utf-8"?>
<!-- Generator: Adobe Illustrator 25.4.1, SVG Export Plug-In . SVG Version: 6.00 Build 0)  -->
<svg version="1.1" id="レイヤー_1" xmlns="http://www.w3.org/2000/svg" xmlns:xlink="http://www.w3.org/1999/xlink" x="0px"
	 y="0px" viewBox="0 0 120 120" style="enable-background:new 0 0 120 120;" xml:space="preserve">
<style type="text/css">
	.st0{fill:#7E7F7F;}
</style>
<path class="st0" d="M113.34,26.79c5.65,0,7.71,2.71,6.16,8.11c-3.95,13.8-7.93,27.59-11.89,41.39c-1.51,5.27-2.5,6.04-7.88,6.04
	c-16.26,0.01-32.51,0.09-48.77-0.08c-2.95-0.03-4.38,0.79-5.2,3.62c-0.91,3.14,1.87,7.4,5.22,7.4c9.02,0.01,18.04-0.02,27.06,0.03
	c1.54,0.01,2.5-0.36,3.4-1.78c3.29-5.14,9.03-7.19,14.71-5.52c5.44,1.6,9.21,6.71,9.21,12.47c0.01,5.81-3.65,10.77-9.19,12.47
	c-5.62,1.72-11.41-0.33-14.72-5.47c-0.91-1.41-1.9-1.78-3.43-1.77c-8.83,0.05-17.67,0.08-26.5-0.02c-1.97-0.02-3.19,0.46-4.33,2.22
	c-3.05,4.69-8.79,6.64-14.11,5.16c-5.3-1.48-9.04-6.06-9.54-11.68c-0.46-5.2,2.59-10.84,7.67-12.62c3.09-1.08,4.52-2.85,5.31-5.72
	c0.4-1.44,1.19-2.77,1.58-4.21c0.25-0.92,0.37-2.05,0.07-2.93c-6.04-17.76-12.16-35.5-18.21-53.26c-0.47-1.38-1.14-1.88-2.61-1.85
	c-3.85,0.1-7.7,0.06-11.56,0.02c-3.54-0.03-5.77-2.05-5.8-5.14c-0.03-3.1,2.16-5.16,5.71-5.2C11.26,8.42,16.8,8.5,22.35,8.45
	c3.04-0.03,4.93,1.35,5.89,4.22c1.3,3.92,2.79,7.77,3.98,11.72c0.55,1.83,1.36,2.45,3.33,2.44c13.06-0.1,26.12-0.05,39.18-0.05
	C87.59,26.78,100.47,26.78,113.34,26.79z"/>
</svg>
