<?xml version="1.0" encoding="utf-8"?>
<!-- Generator: Adobe Illustrator 25.4.1, SVG Export Plug-In . SVG Version: 6.00 Build 0)  -->
<svg version="1.1" id="レイヤー_6" xmlns="http://www.w3.org/2000/svg" xmlns:xlink="http://www.w3.org/1999/xlink" x="0px"
	 y="0px" viewBox="0 0 432 132" style="enable-background:new 0 0 432 132;" xml:space="preserve">
<style type="text/css">
	.st0{fill:#0EE071;}
</style>
<g>
	<g>
		<path class="st0" d="M230.02,45.7H224c-0.92,0-1.66,0.74-1.66,1.66v24.01c0,3.61-2.93,6.53-6.53,6.53c-3.61,0-6.53-2.93-6.53-6.53
			V47.36c0-0.92-0.74-1.66-1.66-1.66h-6.01c-0.92,0-1.66,0.74-1.66,1.66V72.3c0,8.25,6.69,14.94,14.94,14.94h1.87
			c8.25,0,14.94-6.69,14.94-14.94V47.36C231.68,46.44,230.93,45.7,230.02,45.7z"/>
		<path class="st0" d="M192.68,45.7h-7.21c-0.58,0-1.11,0.3-1.4,0.8l-10.03,16.78l-10.03-16.78c-0.29-0.49-0.83-0.8-1.4-0.8h-7.21
			c-0.92,0-1.66,0.74-1.66,1.66v37.29c0,0.92,0.74,1.66,1.66,1.66h6.01c0.92,0,1.66-0.74,1.66-1.66V61.32l8.87,14.85
			c0.29,0.49,0.83,0.8,1.4,0.8h1.39c0.57,0,1.11-0.3,1.4-0.8L185,61.32v23.32c0,0.92,0.74,1.66,1.66,1.66h6.01
			c0.92,0,1.66-0.74,1.66-1.66V47.36C194.34,46.44,193.59,45.7,192.68,45.7z"/>
		<path class="st0" d="M318.36,73.47h-6.65c-0.61,0-1.17,0.33-1.46,0.87c-1.14,2.12-3.38,3.56-5.96,3.56
			c-3.74,0-6.77-3.03-6.77-6.77V60.87c0-3.74,3.03-6.77,6.77-6.77c2.58,0,4.82,1.44,5.96,3.56c0.29,0.54,0.85,0.87,1.46,0.87l6.65,0
			c1.04,0,1.84-0.97,1.6-1.98c-1.63-6.76-7.71-11.79-14.97-11.79l-1.4,0c-8.51,0-15.4,6.9-15.4,15.4v11.67
			c0,8.51,6.9,15.4,15.4,15.4h1.4c7.26,0,13.35-5.02,14.97-11.79C320.2,74.44,319.4,73.47,318.36,73.47z"/>
		<path class="st0" d="M60.11,45.7H54.1c-0.92,0-1.66,0.74-1.66,1.66v37.29c0,0.92,0.74,1.66,1.66,1.66l6.01,0
			c0.92,0,1.66-0.74,1.66-1.66V47.36C61.78,46.44,61.03,45.7,60.11,45.7z"/>
		<path class="st0" d="M101.42,45.7h-6c-0.92,0-1.67,0.75-1.67,1.67v22.15L76.66,46.44c-0.04-0.06-0.08-0.12-0.13-0.17
			c0,0-0.01-0.01-0.01-0.01c-0.03-0.04-0.06-0.07-0.1-0.1c-0.01-0.01-0.02-0.02-0.03-0.03c-0.03-0.03-0.06-0.05-0.09-0.08
			c-0.01-0.01-0.03-0.02-0.04-0.03c-0.03-0.02-0.06-0.04-0.09-0.06c-0.02-0.01-0.03-0.02-0.05-0.03c-0.03-0.02-0.06-0.03-0.09-0.05
			c-0.02-0.01-0.03-0.02-0.05-0.03c-0.03-0.01-0.06-0.03-0.1-0.04c-0.02-0.01-0.04-0.01-0.05-0.02c-0.03-0.01-0.07-0.02-0.1-0.03
			c-0.02-0.01-0.04-0.01-0.06-0.01c-0.03-0.01-0.06-0.02-0.1-0.02c-0.02,0-0.05-0.01-0.07-0.01c-0.03,0-0.06-0.01-0.09-0.01
			c-0.03,0-0.06,0-0.09,0c-0.02,0-0.04,0-0.06,0h-6c-0.92,0-1.67,0.75-1.67,1.67l0,37.27c0,0.92,0.75,1.67,1.67,1.67h6
			c0.92,0,1.67-0.75,1.67-1.67V62.5l17.11,23.1c0.12,0.17,0.26,0.3,0.42,0.41c0.01,0,0.01,0.01,0.02,0.01
			c0.03,0.02,0.07,0.04,0.1,0.06c0.02,0.01,0.03,0.02,0.05,0.03c0.03,0.01,0.05,0.03,0.08,0.04c0.03,0.01,0.05,0.02,0.08,0.03
			c0.02,0.01,0.03,0.01,0.05,0.02c0.04,0.01,0.07,0.03,0.11,0.04c0.01,0,0.02,0,0.02,0.01c0.14,0.04,0.28,0.06,0.43,0.06h6
			c0.92,0,1.67-0.75,1.67-1.67V47.36C103.08,46.44,102.34,45.7,101.42,45.7z"/>
		<path class="st0" d="M45.64,76.97l-16.3,0V47.36c0-0.92-0.75-1.67-1.67-1.67h-6c-0.92,0-1.67,0.75-1.67,1.67v37.27v0
			c0,0.45,0.18,0.85,0.47,1.15c0.01,0.01,0.01,0.02,0.02,0.03c0.01,0.01,0.02,0.01,0.02,0.02c0.3,0.29,0.7,0.47,1.15,0.47h0h23.97
			c0.92,0,1.67-0.75,1.67-1.67v-6C47.31,77.72,46.56,76.97,45.64,76.97z"/>
		<path class="st0" d="M134.56,45.7h-23.97h0c-0.45,0-0.86,0.18-1.16,0.47c-0.01,0.01-0.01,0.01-0.02,0.02
			c-0.01,0.01-0.02,0.02-0.03,0.03c-0.28,0.3-0.46,0.7-0.46,1.15v0v37.27v0c0,0.45,0.18,0.85,0.47,1.15
			c0.01,0.01,0.01,0.02,0.02,0.02c0.01,0.01,0.02,0.01,0.02,0.02c0.3,0.29,0.7,0.47,1.15,0.47h0l23.97,0c0.92,0,1.66-0.75,1.66-1.66
			v-6c0-0.92-0.75-1.67-1.67-1.67h-16.3v-6.3h16.3c0.92,0,1.67-0.75,1.67-1.67v-6c0-0.92-0.75-1.66-1.66-1.66l-16.31,0v-6.3l16.3,0
			c0.92,0,1.67-0.75,1.67-1.67v-6C136.22,46.44,135.48,45.7,134.56,45.7z"/>
		<path class="st0" d="M256.56,62.22l-4.86-1.01c-3.98-0.84-5.65-2.12-5.65-4.33c0-2.68,2.22-4.38,5.6-4.38
			c2.89,0,5.17,1.46,5.89,3.67c0.22,0.67,0.8,1.16,1.51,1.16h5.78c1,0,1.8-0.9,1.64-1.89c-1.07-6.42-6.87-10.68-14.94-10.68
			c-9.1,0-15.01,5.17-15.01,13.04c0,6.34,3.56,10.36,10.46,11.76l4.97,1.06c4.32,0.92,5.96,2.12,5.96,4.36c0,2.65-2.46,4.5-6.04,4.5
			c-3.41,0-5.91-1.37-6.71-3.61c-0.23-0.64-0.89-1.19-1.57-1.19h-6.04c-1,0-1.79,0.89-1.64,1.88c1.02,6.65,6.81,10.69,15.56,10.69
			c9.89,0,15.9-5.08,15.9-13.49C267.36,67.35,264.01,63.75,256.56,62.22z"/>
		<path class="st0" d="M280.55,45.7h-6.01c-0.92,0-1.66,0.74-1.66,1.66v37.29c0,0.92,0.74,1.66,1.66,1.66h6.01
			c0.92,0,1.66-0.74,1.66-1.66V47.36C282.22,46.44,281.47,45.7,280.55,45.7z"/>
	</g>
</g>
</svg>
