<?xml version="1.0" encoding="utf-8"?>
<!-- Generator: Adobe Illustrator 25.4.1, SVG Export Plug-In . SVG Version: 6.00 Build 0)  -->
<svg version="1.1" id="レイヤー_1" xmlns="http://www.w3.org/2000/svg" xmlns:xlink="http://www.w3.org/1999/xlink" x="0px"
	 y="0px" viewBox="0 0 248 248" style="enable-background:new 0 0 248 248;" xml:space="preserve">
<style type="text/css">
	.st0{fill:#1D9BF0;}
</style>
<path id="Logo_1_" class="st0" d="M211.48,79.12c0.13,1.94,0.13,3.88,0.13,5.83c0,59.65-45.41,128.43-128.43,128.43v-0.04
	c-24.53,0.03-48.54-6.99-69.19-20.24c3.57,0.43,7.15,0.64,10.74,0.65c20.33,0.02,40.07-6.8,56.06-19.36
	c-19.31-0.36-36.26-12.96-42.17-31.35c6.76,1.3,13.74,1.04,20.38-0.77c-21.06-4.25-36.21-22.76-36.21-44.25c0-0.19,0-0.39,0-0.57
	c6.28,3.5,13.3,5.44,20.49,5.65C23.45,89.86,17.33,63.48,29.31,42.85c22.92,28.2,56.73,45.34,93.02,47.16
	c-3.64-15.68,1.34-32.1,13.06-43.13c18.18-17.09,46.77-16.22,63.86,1.96c10.11-1.99,19.8-5.7,28.66-10.96
	c-3.37,10.45-10.42,19.32-19.84,24.97c8.95-1.06,17.69-3.45,25.92-7.1C227.94,64.82,220.31,72.73,211.48,79.12z"/>
</svg>
