<?xml version="1.0" encoding="utf-8"?>
<!-- Generator: Adobe Illustrator 25.4.1, SVG Export Plug-In . SVG Version: 6.00 Build 0)  -->
<svg version="1.1" id="レイヤー_1" xmlns="http://www.w3.org/2000/svg" xmlns:xlink="http://www.w3.org/1999/xlink" x="0px"
	 y="0px" viewBox="0 0 836 728" style="enable-background:new 0 0 836 728;" xml:space="preserve">
<style type="text/css">
	.st0{fill:#FFFFFF;}
</style>
<g>
	<g>
		<g>
			<path class="st0" d="M21.87,603.81c0.21,4.87,0.74,6.03,3.28,6.98c1.59,0.63,7.62,1.06,14.39,1.06c24.87,0,27.83-0.74,27.83-6.56
				c0-2.86-1.37-4.97-3.6-5.71c-2.33-0.74-2.33-0.74-13.44-0.85H30.87c-13.02,0-18.41-0.74-22.96-3.07
				c-5.08-2.65-7.41-8.25-7.41-17.89c0-12.7,3.6-18.09,13.76-20.53c5.71-1.48,13.97-2.01,29.42-2.01c24.76,0,30.48,0.64,35.56,3.92
				c4.87,3.28,6.46,7.62,6.46,18.2H64.73c0-6.14-2.12-6.98-15.98-6.98c-6.88,0-16.08,0.21-19.47,0.42
				c-5.71,0.43-7.62,1.91-7.62,5.93c0,2.96,1.48,4.87,4.55,5.61c1.27,0.32,1.69,0.42,8.68,0.53h20c1.9,0,11.43,0.32,15.03,0.53
				c13.44,0.63,18.73,6.56,18.73,20.74c0,13.02-3.81,18.73-14.18,20.95c-5.29,1.16-15.77,1.8-31.11,1.8
				c-24.45,0-29.84-0.53-36.09-3.7c-4.34-2.12-6.56-7.51-6.56-15.87c0-0.63,0-2.01,0.11-3.49H21.87z"/>
			<path class="st0" d="M191.49,599.79c-0.11,10.27-0.42,13.76-1.9,16.93c-2.75,6.03-8.47,8.89-19.47,9.63
				c-4.34,0.42-12.81,0.53-26.88,0.53c-20.32,0-26.88-0.95-32.59-4.66c-6.99-4.44-9-11.85-9-32.8c0-18.63,2.11-25.29,9.52-29.53
				c6.35-3.7,13.12-4.66,32.91-4.66c26.35,0,32.06,0.53,38.1,3.49c5.71,2.86,8.36,9.1,8.36,19.47v2.33H170
				c-0.42-7.72-2.01-8.36-20.64-8.36c-17.57,0-20.74,0.42-23.39,2.75c-2.54,2.33-3.07,5.19-3.07,16.62c0,16.93,1.59,18.2,22.22,18.2
				c15.98,0,18.31-0.11,21.27-1.38c3.07-1.27,4.23-3.49,4.23-8.57H191.49z"/>
			<path class="st0" d="M208.4,555.77h60.85c12.49,0,17.99,1.06,22.01,4.44c4.13,3.28,6.03,9.31,6.03,18.84
				c0,13.12-3.18,18.3-12.17,20.32c8.78,1.48,11.43,5.18,11.22,15.87v11.11h-21.8v-8.78c-0.11-7.62-2.22-9.21-11.85-9h-32.91v17.78
				H208.4V555.77z M263.32,591.32c10.37,0,12.38-1.27,12.38-8.25c0-4.55-0.42-6.45-1.8-7.93c-1.59-1.7-3.39-2.01-9.84-2.01h-34.29
				v18.2H263.32z"/>
			<path class="st0" d="M348.28,555.77h28.78l38.62,70.58h-23.49l-6.98-12.59h-45.5l-6.77,12.59h-24.34L348.28,555.77z
				 M377.7,599.05l-15.24-28.15l-15.03,28.15H377.7z"/>
			<path class="st0" d="M427.62,555.77h34.08l25.71,46.88l25.61-46.88h33.86v70.58h-20.95l1.06-54.5l-31.32,54.5h-17.14l-30.8-54.5
				l0.63,54.5h-20.74V555.77z"/>
			<path class="st0" d="M565.27,555.77h63.71c8.15,0,12.59,0.74,16.3,2.54c5.71,2.96,8.04,7.73,8.04,16.72
				c0,9.21-3.17,13.97-9.84,15.24c9.52,1.8,12.7,5.93,12.7,16.19c0,8.89-2.54,14.5-8.15,17.46c-3.28,1.7-7.94,2.44-16.09,2.44
				h-66.67V555.77z M622.31,583.91c4.13,0,5.61-0.21,6.99-0.85c1.69-0.95,2.75-2.86,2.75-5.29c0-2.86-1.38-4.97-3.7-5.82
				c-1.37-0.43-2.43-0.53-6.56-0.53h-35.56v12.49H622.31z M624.64,610.69c4.34,0,5.19-0.1,6.56-0.53c2.12-0.74,3.39-2.86,3.39-5.82
				c0-3.07-1.27-5.18-3.6-6.03c-1.27-0.43-2.12-0.53-6.88-0.53h-37.89v12.91H624.64z"/>
			<path class="st0" d="M673.08,555.77h21.48v53.12h48.57v17.46h-70.05V555.77z"/>
			<path class="st0" d="M834.76,555.77v15.98h-57.04v12.17h53.76v13.97h-53.76v12.49h57.78v15.98h-78.94v-70.58H834.76z"/>
			<path class="st0" d="M140.68,657.42h53.97c13.65,0,17.14,0.42,21.59,2.65c7.09,3.49,9.74,9.95,9.74,23.28
				c0,13.44-2.43,20.43-8.25,24.02c-4.13,2.54-8.89,3.28-21.17,3.28h-34.5V728h-21.38V657.42z M193.28,693.5
				c8.78,0,11.32-1.9,11.32-8.57c0-8.46-2.12-10.37-11.32-10.37h-31.22v18.94H193.28z"/>
			<path class="st0" d="M241.09,657.42h21.48v53.12h48.57V728h-70.05V657.42z"/>
			<path class="st0" d="M360.02,657.42h28.78L427.43,728h-23.49l-6.98-12.59h-45.5L344.67,728h-24.34L360.02,657.42z M389.44,700.7
				l-15.24-28.15l-15.03,28.15H389.44z"/>
			<path class="st0" d="M439.36,657.42h34.18l42.75,53.65l-0.53-53.65h20.32V728h-34.5l-42.12-53.12L460,728h-20.64V657.42z"/>
			<path class="st0" d="M632.57,657.42v15.98h-57.04v12.17h53.76v13.97h-53.76v12.49h57.78V728h-78.94v-70.58H632.57z"/>
			<path class="st0" d="M676.36,674.88h-31.43v-17.46h84.34v17.46h-31.43V728h-21.48V674.88z"/>
		</g>
	</g>
	<g>
		<path class="st0" d="M793.75,220.41c-3.06-27.16-28.86-48.83-74.45-63.67c27.25-40.1,34.81-73.88,20.14-97.64
			c-21.45-34.74-81.28-37.14-173.03-6.98l-14.05,4.68C513.65,21.52,462.16,0,405.65,0C295.82,0,205.02,81.28,190.01,186.97
			l-19.7,7.15c-9.28,3.35-18.02,6.76-26.3,10.22c-3.57-2.7-7.58-4.94-11.99-6.58c-24.28-9-51.25,3.39-60.25,27.67
			c-2.74,7.4-3.47,15.05-2.51,22.37c-20.18,18.09-29.23,37.22-26.97,57.29c3.44,30.5,33.52,49.92,69.54,62.27
			c-22.15,36.93-28.45,68.61-15.81,89.08c11.49,18.6,33.84,28.02,66.45,28.02c22.93,0,50.75-4.63,82.69-13.75
			c15.67-4.49,32.27-10.01,49.34-16.42c17.17-6.45,35.86-14.27,55.55-23.26c6.12-2.79,12.27-5.65,18.49-8.63
			c21.8-10.47,43.63-21.8,64.86-33.69c4.49-2.51,8.98-5.14,13.48-7.74c19.7-2.45,39.24-5.32,58.27-8.58
			c9.06-1.55,17.94-3.21,26.7-4.92c3.92-0.77,7.83-1.53,11.69-2.33c6.04-1.25,12.01-2.54,17.89-3.86
			c39.9-8.94,75.27-19.2,105.69-30.42c4.5,4.32,9.93,7.82,16.16,10.13c24.28,9,51.25-3.39,60.25-27.67
			c2.56-6.92,3.34-14.06,2.64-20.94C779.75,269.82,796.55,245.28,793.75,220.41z M210.51,314.74c5.97,12,12.97,23.39,20.96,34
			c-17.58-1.3-34.15-3.15-49.53-5.53C190.83,333.49,200.46,323.89,210.51,314.74z M81.68,300.65c-0.36-3.19,0.33-9.98,8.91-19.37
			c2.74,1.74,5.68,3.22,8.84,4.4c24.28,9,51.25-3.39,60.25-27.67c2.21-5.97,3.12-12.09,2.88-18.08c5.73-2.23,11.83-4.5,18.39-6.81
			l7.22-2.54c0.8,13.9,2.9,27.46,6.19,40.54l-7.72,7.25c-19.91,18.69-37.02,37.21-51.12,55.02
			C95.63,322.03,82.55,308.32,81.68,300.65z M335.4,394.19c-5.42,2.49-10.79,4.89-16.13,7.22c-30.46,13.27-59.06,23.76-85.02,31.18
			c-71.36,20.4-99.26,11.49-104.49,3.02c-1.7-2.75-2.3-16.05,15.04-44.28c2.58-4.21,5.52-8.54,8.61-12.92
			c5.96,1.21,11.87,2.29,17.66,3.24c16.07,2.63,33.44,4.72,51.62,6.21c18.28,1.5,38.53,2.4,60.17,2.68c4.8,0.06,9.63,0.1,14.49,0.1
			l5.9-0.02c13.92-0.09,27.97-0.47,42.02-1.07C341.97,391.11,338.67,392.69,335.4,394.19z M488.44,160.65
			c-13.4,16.15-58.43,7.09-43.72-18.11C457.12,121.27,506.24,139.2,488.44,160.65z M488.03,114.96
			c-33.83,9.99-88.2-44.82-44.06-66.23C481.21,30.67,532.97,101.7,488.03,114.96z M528.88,128.37c-4.12,9.65-26.99,11.75-23.54-2.43
			C508.24,113.97,534.35,115.55,528.88,128.37z M581.58,88.62c84.61-28.58,117.82-18.91,124.12-8.69
			c5.66,9.16-2.13,32.76-27.87,66.26c-16.93-3.32-35.57-5.99-55.88-7.96c-1.51-0.15-4.81-0.36-7.98-0.55
			c-2.56-0.16-4.66-0.29-5.75-0.38l-0.15-0.01c-6.93-17.39-16-33.69-26.94-48.53L581.58,88.62z M647.78,180.88
			c-7.44,7.78-15.67,15.9-24.66,24.3c-0.53-9.27-1.67-18.38-3.33-27.31c0.43,0.03,0.81,0.05,1.11,0.08
			C630.48,178.8,639.43,179.78,647.78,180.88z M725.9,258.31c-3.07-2.09-6.41-3.88-10.05-5.23c-24.28-9-51.25,3.39-60.25,27.67
			c-1.59,4.28-2.47,8.64-2.78,12.98c-14.84,5.5-31.38,10.93-49.67,16.15c7.09-15.18,12.48-31.31,15.92-48.16
			c30.02-25.23,55.1-49.5,74.84-72.28c44.33,11.2,59.39,26.16,60.44,35.42C755.25,232.8,746.05,244.77,725.9,258.31z"/>
		<path class="st0" d="M561.2,372.34c-5.23,1.16-10.52,2.3-15.87,3.41c-3.9,0.8-7.84,1.58-11.79,2.35
			c-9.92,1.94-18.72,3.56-26.91,4.97c-18.29,3.14-37.43,5.97-56.9,8.42l-1.84,1.06c-3.41,1.97-6.81,3.94-10.21,5.84
			c-21.39,11.97-43.38,23.39-65.35,33.94c-1.49,0.71-2.97,1.42-4.45,2.12c12.27,2.14,24.89,3.26,37.77,3.26
			c60.94,0,116.03-25.02,155.57-65.35"/>
	</g>
</g>
</svg>
