<?xml version="1.0" encoding="utf-8"?>
<!-- Generator: Adobe Illustrator 25.4.1, SVG Export Plug-In . SVG Version: 6.00 Build 0)  -->
<svg version="1.1" id="レイヤー_1" xmlns="http://www.w3.org/2000/svg" xmlns:xlink="http://www.w3.org/1999/xlink" x="0px"
	 y="0px" viewBox="0 0 300 147" style="enable-background:new 0 0 300 147;" xml:space="preserve">
<style type="text/css">
	.st0{display:none;}
	.st1{display:inline;}
	.st2{fill:#FFFFFF;}
	.st3{display:inline;fill:#FFFFFF;}
	.st4{display:none;fill:none;stroke:#00FFFF;stroke-miterlimit:10;}
</style>
<g class="st0">
	<g class="st1">
		<g>
			<path class="st2" d="M345.23,152.4h-0.09l-2.26,11.08h4.6L345.23,152.4z M353.72,171.74c0.36,1.5-2.21,2.44-3.1,2.44
				c-0.7,0-0.97-0.2-1.14-1.04l-1.14-5.53h-4.72c-1.06,0-1.64,0.41-1.77,1.09l-0.62,2.99c-0.38,1.84-2.6,2.49-3.97,2.49
				c-0.91,0-1.05-0.39-0.87-1.16l6.89-29.42h3.84L353.72,171.74z"/>
			<path class="st2" d="M325.64,143.6h-4.6v30.53h11.12c1.83,0,2.59-2.51,2.59-3.33c0-0.87-0.38-1.05-1.18-1.05h-6.25
				c-1.06,0-1.67-0.4-1.67-1.09V143.6z"/>
			<path class="st2" d="M389.43,143.6c0.75,0,1.11,0.17,1.11,0.99c0,0.77-0.72,3.13-2.43,3.13h-5.74c-1.06,0-1.68,0.4-1.68,1.09
				v7.36h7.94v4.12h-6.26c-1.06,0-1.68,0.4-1.68,1.09v8.37h8.77c0.8,0,1.18,0.18,1.18,1.05c0,0.82-0.76,3.33-2.58,3.33h-11.97V143.6
				H389.43z"/>
			<path class="st2" d="M402.14,171.6c0,1.83-2.64,2.58-3.5,2.58c-0.92,0-1.1-0.38-1.1-1.18v-25.28h-5.32v-4.12h15.18
				c0.8,0,1.18,0.17,1.18,0.99c0,0.77-0.76,3.14-2.59,3.14h-2.17c-1.06,0-1.68,0.4-1.68,1.09V171.6z"/>
			<path class="st2" d="M360.96,155.8h-0.09v15.8c0,1.83-2.64,2.58-3.51,2.58c-0.91,0-1.08-0.38-1.08-1.18V143.6h4.41l6.95,18.43
				h0.09V143.6h4.6v28c0,1.83-2.64,2.58-3.51,2.58c-0.56,0-0.83-0.1-1.02-0.52L360.96,155.8z"/>
			<path class="st2" d="M303.55,143.6h6.9c2.52,0,4.37,0.56,5.96,2.15c1.57,1.59,2.07,3.52,2.07,7.17c0,2.67-0.23,4.46-1.31,6.14
				c-1.26,1.97-3.29,3.18-6.68,3.18h-0.67c-1.06,0-1.67,0.4-1.67,1.08v8.27c0,1.83-2.64,2.58-3.51,2.58c-0.91,0-1.09-0.38-1.09-1.18
				V143.6z M308.15,158.12h2.21c3.74,0,3.78-2.1,3.78-5.16c0-2.87,0-5.24-3.6-5.24h-0.72c-1.06,0-1.67,0.4-1.67,1.09V158.12z"/>
		</g>
		<g>
			<path class="st2" d="M207.45,126.15c-6.72,0.06-12.55-0.51-19.14-2.03c-6.59-1.52-11.59-4.37-19-4.31
				c-7.41,0.06-14.38,2.72-13.56,4.5c0.83,1.77,3.55,5.01,7.1,7.22c3.55,2.21,8.05,4.18,10.14,4.06c2.09-0.13,3.6-0.79,1.39-1.52
				c-3.99-1.33-8.68-3.11-10.71-4.31c-2.03-1.21-3.61-2.73-2.03-3.87c1.58-1.14,4.37-2.09,8.36-2.47c4-0.39,5.9-0.32,11.54,1.9
				c5.64,2.22,13.81,4.69,23.89,4.81c10.07,0.13,22.37-0.64,27.44-2.41c5.06-1.77,6.14-3.55,5.96-4.69
				c-0.2-1.14-0.89-1.33-4.63-2.59c-3.74-1.27-10.58-3.11-17.55-3.99c-6.97-0.89-12.74-1.39-15.08-0.89
				c-2.34,0.5-2.53,1.4-3.68,3.81c-1.14,2.4-5.2,11.72-6.46,17.99c-1.27,6.28-2.09,14.07-0.57,22.62
				c1.53,8.55,4.37,14.64,7.61,17.86c3.23,3.24,7.73,5.32,10.2,4.37c2.47-0.95,3.54-4.11,2.97-4.62c-0.57-0.5-0.99-0.02-2.34,0.57
				c-2.6,1.14-4.75,1.71-8.11-1.39c-3.36-3.1-6.85-11.47-7.48-22.75c-0.63-11.27,3.45-22.5,4.66-25.29
				c1.21-2.79,2.54-5.55,3.42-6.57c1.33-1.51,2.99-2.19,6.94-2.09c3.99,0.09,9.88,0.67,14.16,1.05c3.73,0.33,10.36,0.77,10.55,1.91
				c0.19,1.14-1.4,1.46-5.13,1.9C224.55,125.39,214.48,126.09,207.45,126.15z"/>
			<path class="st2" d="M209.29,158.28c0.48,3.31,1.6,7.1,4.33,7.72c3.06,0.69,4.33,0.1,5.51-1.79c1.68-2.66,2.92-12.91,4.27-17.42
				c0.32-1.08,0.34-1.07,0.8-0.33c2.33,3.75,4.42,7.89,5.89,10.73c1.47,2.85,3.97,7.93,4.56,10.65c0.48,2.18,0.14,6.89-0.38,9.79
				c-0.52,2.9-0.81,4.09,0.42,5.89c1.24,1.8,2.19,1.57,3.09,0.38c0.9-1.19,1.42-2.61,2.09-7.89c0.67-5.27,1.57-15.06,2.71-22.71
				c1.14-7.65,2.75-16.13,4.2-20.82c1.34-4.33,3.02-7.98,3.26-9.64c0.23-1.67,0.23-2.71,0.34-3.57c0.1-0.86-0.43-0.69-1.19,0.71
				c-3.56,6.56-5.81,12.14-7.09,17.12c-1.28,4.99-4.25,18.51-5.17,25.41c-0.09,0.71-0.45,1.39-1.04,0.23
				c-2.57-5.03-4.56-10.02-6.27-13.87c-1.71-3.85-3.76-7.94-4.99-9.03c-1.24-1.09-2.62-1.22-3.05-0.34
				c-1.33,2.76-2.82,12.88-4.54,18.64c-0.93,3.14-1.83,4.56-2.77,4.45c-0.92-0.1-1.37-1.53-1.57-3.66
				c-0.47-4.87,1.04-13.2,0.65-15.91c-0.38-2.71-1.8-3.38-3.56-3.89c-1.76-0.53-3.33-0.91-4.28-0.57c-0.95,0.33-0.91,0.66,0.57,1.57
				c1.48,0.91,3.45,2.15,3.61,3.9C210.12,148.38,208.92,155.71,209.29,158.28z"/>
			<path class="st2" d="M250.18,157.16c-0.38,7.75,0.32,10.28,2.1,13.97c1.2,2.48,2.14,2.99,2.95,2.71
				c0.81-0.28,0.87-0.85,0.43-2.61c-1.02-4.05-1.44-7.95-1.11-12.03c0.27-3.33,1.57-5.56,2.19-7.46c0.62-1.9,0.53-3.8-0.19-4.75
				c-0.71-0.95-2.95-1.76-4.08-2.57c-1.14-0.81-2.29-0.24-1.53,0.71c0.76,0.95,1.23,2.28,0.76,3.8
				C251.23,150.45,250.32,154.3,250.18,157.16z"/>
			<path class="st2" d="M265.12,152.82c-0.41,5.15-2.11,17.71-2.02,18.85c0.1,1.14,0.94,1.71,1.66,2.14
				c0.71,0.42,1.17-0.18,1.52-1.24c1.3-3.94,3.06-17.8,3.4-21.27c0.05-0.58,0.32-0.76,1.05-0.1c3.58,3.27,7.17,9.69,9.22,13.17
				c1.8,3.06,3.36,5.22,3.41,8.78c0.05,3.56-0.57,8.65-0.76,10.07c-0.19,1.43,0.66,1,1.38,0.24c0.71-0.77,1.95-1.71,3.18-2.24
				c1.24-0.52,1.51-2.57,1.81-6.94c0.47-6.94,1.86-18.58,3.09-25.76c1.23-7.18,3.13-15.92,4.47-19.34c1.33-3.42,2.04-5.28,2.28-6.79
				c0.24-1.52,0.12-1.95,0.2-2.8c0.09-0.96-0.17-1.35-0.96,0.04c-3.76,6.6-6.57,15.39-7.89,20.05c-1.33,4.66-3.8,15.3-4.47,18.34
				c-0.67,3.04-1.04,5.23-1.19,6.37c-0.14,1.14-0.39,1.25-0.71,0.62c-2.85-5.53-7.07-11.85-8.93-14.06
				c-1.97-2.35-3.61-3.89-4.82-5.09c-1.58-1.59-2.36-2.33-3.78-2.51c-1.43-0.19-2.38,0.33-2.09,1.66c0.39,1.82,0.95,2.76,1.04,3.99
				C265.31,150.25,265.25,151.25,265.12,152.82z"/>
		</g>
	</g>
	<path class="st3" d="M419.71,132.15c0.72,4.31,2.93,8.82,5.52,10.26c2.7,1.51,4.73-0.27,4.66-2.12c-0.06-1.57-0.69-2.51-3.09-5.59
		c-2.41-3.1-4.14-6.63-2.83-11.15c1.31-4.52,4.79-8.75,11.5-9.02c7.07-0.28,12.15,5.73,13.62,10.95c1.47,5.18,0.34,10.05-4.78,12.19
		c-4.3,1.79-8.28-0.04-10.48-2.2c-2.14-2.12-2.9-4.9-3.1-7.45c-0.16-2.09-2.85-1.77-2.27,0.65c1.22,5.24,4,8.14,7.6,9.81
		c3.59,1.67,8.7,1.4,11.87-1.7c3.33-3.26,4.01-7.58,2.48-12.54c-1.53-4.96-6.83-10.87-14.52-10.79c-5.89,0.06-10.37,2.56-13.4,6.36
		C419.66,123.39,419.08,128.4,419.71,132.15z"/>
	<path class="st3" d="M453.33,138.95c1.49-2.96,2.35-6.3,2.35-9.84c0-12.01-9.73-21.74-21.74-21.74c-12.01,0-21.74,9.73-21.74,21.74
		c0,12.01,9.49,21.75,21.5,21.75c5.69,0,11.85-2.51,14.53-8.24c2.87-6.13-0.17-12.18-2.48-14.87c-2.31-2.68-6.11-5.33-8.33-5.11
		c-2.24,0.22-3.18,1.69-2.44,3.73c0.64,1.75,4.1,2.68,7.34,6.1c3.24,3.43,3.24,7.94,2,10.87c-1.33,3.13-4.85,6.07-10.13,6.07
		c-11.53,0-19.69-8.7-19.69-20.25c0-10.36,8.48-19.21,19.9-19.21c11.27,0,19.96,8.41,19.96,19.21c0,3.29-0.81,6.41-2.31,9.12
		c-0.23,0.43-0.15,0.85,0.2,1.06C452.52,139.51,453.06,139.48,453.33,138.95z"/>
</g>
<rect x="155.58" y="73.61" class="st4" width="300" height="147"/>
<g>
	<g>
		<g>
			<path class="st2" d="M189.6,78.8h-0.09l-2.26,11.08h4.6L189.6,78.8z M198.09,98.13c0.36,1.5-2.21,2.44-3.1,2.44
				c-0.7,0-0.97-0.2-1.14-1.04l-1.14-5.53H188c-1.06,0-1.64,0.41-1.77,1.09l-0.62,2.99c-0.38,1.84-2.6,2.49-3.97,2.49
				c-0.91,0-1.05-0.39-0.87-1.16L187.66,70h3.84L198.09,98.13z"/>
			<path class="st2" d="M170.01,69.99h-4.6v30.53h11.12c1.83,0,2.59-2.51,2.59-3.33c0-0.87-0.38-1.05-1.18-1.05h-6.25
				c-1.06,0-1.67-0.4-1.67-1.09V69.99z"/>
			<path class="st2" d="M233.8,69.99c0.75,0,1.11,0.17,1.11,0.99c0,0.77-0.72,3.13-2.43,3.13h-5.74c-1.06,0-1.68,0.4-1.68,1.09v7.36
				H233v4.12h-6.26c-1.06,0-1.68,0.4-1.68,1.09v8.37h8.77c0.8,0,1.18,0.18,1.18,1.05c0,0.82-0.76,3.33-2.58,3.33h-11.97V69.99H233.8
				z"/>
			<path class="st2" d="M246.51,97.99c0,1.83-2.64,2.58-3.5,2.58c-0.92,0-1.1-0.38-1.1-1.18V74.11h-5.32v-4.12h15.18
				c0.8,0,1.18,0.17,1.18,0.99c0,0.77-0.76,3.14-2.59,3.14h-2.17c-1.06,0-1.68,0.4-1.68,1.09V97.99z"/>
			<path class="st2" d="M205.33,82.2h-0.09v15.8c0,1.83-2.64,2.58-3.51,2.58c-0.91,0-1.08-0.38-1.08-1.18V69.99h4.41L212,88.42h0.09
				V69.99h4.6v28c0,1.83-2.64,2.58-3.51,2.58c-0.56,0-0.83-0.1-1.02-0.52L205.33,82.2z"/>
			<path class="st2" d="M147.92,69.99h6.9c2.52,0,4.37,0.56,5.96,2.15c1.57,1.59,2.07,3.52,2.07,7.17c0,2.67-0.23,4.46-1.31,6.14
				c-1.26,1.97-3.29,3.18-6.68,3.18h-0.67c-1.06,0-1.67,0.4-1.67,1.08v8.27c0,1.83-2.64,2.58-3.51,2.58c-0.91,0-1.09-0.38-1.09-1.18
				V69.99z M152.52,84.51h2.21c3.74,0,3.78-2.1,3.78-5.16c0-2.87,0-5.24-3.6-5.24h-0.72c-1.06,0-1.67,0.4-1.67,1.09V84.51z"/>
		</g>
		<g>
			<path class="st2" d="M51.82,52.55c-6.72,0.06-12.55-0.51-19.14-2.03c-6.59-1.52-11.59-4.37-19-4.31
				c-7.41,0.06-14.38,2.72-13.56,4.5c0.83,1.77,3.55,5.01,7.1,7.22c3.55,2.21,8.05,4.18,10.14,4.06c2.09-0.13,3.6-0.79,1.39-1.52
				c-3.99-1.33-8.68-3.11-10.71-4.31c-2.03-1.21-3.61-2.73-2.03-3.87c1.58-1.14,4.37-2.09,8.36-2.47c4-0.39,5.9-0.32,11.54,1.9
				c5.64,2.22,13.81,4.69,23.89,4.81c10.07,0.13,22.37-0.64,27.44-2.41c5.06-1.77,6.14-3.55,5.96-4.69
				c-0.2-1.14-0.89-1.33-4.63-2.59c-3.74-1.27-10.58-3.11-17.55-3.99c-6.97-0.89-12.74-1.39-15.08-0.89
				c-2.34,0.5-2.53,1.4-3.68,3.81c-1.14,2.4-5.2,11.72-6.46,17.99c-1.27,6.28-2.09,14.07-0.57,22.62
				c1.53,8.55,4.37,14.64,7.61,17.86c3.23,3.24,7.73,5.32,10.2,4.37c2.47-0.95,3.54-4.11,2.97-4.62c-0.57-0.5-0.99-0.02-2.34,0.57
				c-2.6,1.14-4.75,1.71-8.11-1.39c-3.36-3.1-6.85-11.47-7.48-22.75c-0.63-11.27,3.45-22.5,4.66-25.29
				c1.21-2.79,2.54-5.55,3.42-6.57c1.33-1.51,2.99-2.19,6.94-2.09c3.99,0.09,9.88,0.67,14.16,1.05c3.73,0.33,10.36,0.77,10.55,1.91
				c0.19,1.14-1.4,1.46-5.13,1.9C68.92,51.78,58.85,52.48,51.82,52.55z"/>
			<path class="st2" d="M53.66,84.67c0.48,3.31,1.6,7.1,4.33,7.72c3.06,0.69,4.33,0.1,5.51-1.79c1.68-2.66,2.92-12.91,4.27-17.42
				c0.32-1.08,0.34-1.07,0.8-0.33c2.33,3.75,4.42,7.89,5.89,10.73c1.47,2.85,3.97,7.93,4.56,10.65c0.48,2.18,0.14,6.89-0.38,9.79
				c-0.52,2.9-0.81,4.09,0.42,5.89c1.24,1.8,2.19,1.57,3.09,0.38c0.9-1.19,1.42-2.61,2.09-7.89c0.67-5.27,1.57-15.06,2.71-22.71
				c1.14-7.65,2.75-16.13,4.2-20.82c1.34-4.33,3.02-7.98,3.26-9.64c0.23-1.67,0.23-2.71,0.34-3.57c0.1-0.86-0.43-0.69-1.19,0.71
				C90,52.94,87.75,58.52,86.47,63.5c-1.28,4.99-4.25,18.51-5.17,25.41c-0.09,0.71-0.45,1.39-1.04,0.23
				c-2.57-5.03-4.56-10.02-6.27-13.87c-1.71-3.85-3.76-7.94-4.99-9.03c-1.24-1.09-2.62-1.22-3.05-0.34
				c-1.33,2.76-2.82,12.88-4.54,18.64c-0.93,3.14-1.83,4.56-2.77,4.45c-0.92-0.1-1.37-1.53-1.57-3.66
				c-0.47-4.87,1.04-13.2,0.65-15.91c-0.38-2.71-1.8-3.38-3.56-3.89c-1.76-0.53-3.33-0.91-4.28-0.57c-0.95,0.33-0.91,0.66,0.57,1.57
				c1.48,0.91,3.45,2.15,3.61,3.9C54.49,74.77,53.29,82.11,53.66,84.67z"/>
			<path class="st2" d="M94.55,83.55c-0.38,7.75,0.32,10.28,2.1,13.97c1.2,2.48,2.14,2.99,2.95,2.71c0.81-0.28,0.87-0.85,0.43-2.61
				c-1.02-4.05-1.44-7.95-1.11-12.03c0.27-3.33,1.57-5.56,2.19-7.46c0.62-1.9,0.53-3.8-0.19-4.75c-0.71-0.95-2.95-1.76-4.08-2.57
				c-1.14-0.81-2.29-0.24-1.53,0.71c0.76,0.95,1.23,2.28,0.76,3.8C95.6,76.85,94.69,80.7,94.55,83.55z"/>
			<path class="st2" d="M109.5,79.22c-0.41,5.15-2.11,17.71-2.02,18.85c0.1,1.14,0.94,1.71,1.66,2.14c0.71,0.42,1.17-0.18,1.52-1.24
				c1.3-3.94,3.06-17.8,3.4-21.27c0.05-0.58,0.32-0.76,1.05-0.1c3.58,3.27,7.17,9.69,9.22,13.17c1.8,3.06,3.36,5.22,3.41,8.78
				c0.05,3.56-0.57,8.65-0.76,10.07c-0.19,1.43,0.66,1,1.38,0.24c0.71-0.77,1.95-1.71,3.18-2.24c1.24-0.52,1.51-2.57,1.81-6.94
				c0.47-6.94,1.86-18.58,3.09-25.76c1.23-7.18,3.13-15.92,4.47-19.34c1.33-3.42,2.04-5.28,2.28-6.79c0.24-1.52,0.12-1.95,0.2-2.8
				c0.09-0.96-0.18-1.35-0.96,0.04c-3.76,6.6-6.57,15.39-7.89,20.05c-1.33,4.66-3.8,15.3-4.47,18.34c-0.67,3.04-1.04,5.23-1.19,6.37
				c-0.14,1.14-0.39,1.25-0.71,0.62c-2.85-5.53-7.07-11.85-8.93-14.06c-1.97-2.35-3.61-3.89-4.82-5.09
				c-1.58-1.59-2.36-2.33-3.78-2.51c-1.43-0.19-2.38,0.33-2.09,1.66c0.39,1.82,0.95,2.76,1.04,3.99
				C109.68,76.65,109.62,77.65,109.5,79.22z"/>
		</g>
	</g>
	<path class="st2" d="M264.08,58.55c0.72,4.31,2.93,8.82,5.52,10.26c2.7,1.51,4.73-0.27,4.66-2.12c-0.06-1.57-0.69-2.51-3.09-5.59
		c-2.41-3.1-4.14-6.63-2.83-11.15c1.31-4.52,4.79-8.75,11.5-9.02c7.07-0.28,12.15,5.73,13.62,10.95c1.47,5.18,0.34,10.05-4.78,12.19
		c-4.3,1.79-8.28-0.04-10.48-2.2c-2.14-2.12-2.9-4.9-3.1-7.45c-0.16-2.09-2.85-1.77-2.27,0.65c1.22,5.24,4,8.14,7.6,9.81
		c3.59,1.67,8.7,1.4,11.87-1.7c3.33-3.26,4.01-7.58,2.48-12.54c-1.53-4.96-6.83-10.87-14.52-10.79c-5.89,0.06-10.37,2.56-13.4,6.36
		C264.03,49.78,263.46,54.8,264.08,58.55z"/>
	<path class="st2" d="M297.7,65.34c1.49-2.96,2.35-6.3,2.35-9.84c0-12.01-9.73-21.74-21.74-21.74c-12.01,0-21.74,9.73-21.74,21.74
		c0,12.01,9.49,21.75,21.5,21.75c5.69,0,11.85-2.51,14.53-8.24c2.87-6.13-0.17-12.18-2.48-14.87c-2.31-2.68-6.11-5.33-8.33-5.11
		c-2.24,0.22-3.18,1.69-2.44,3.73c0.64,1.75,4.1,2.68,7.34,6.1c3.24,3.43,3.24,7.94,2,10.87c-1.33,3.13-4.85,6.07-10.13,6.07
		c-11.53,0-19.69-8.7-19.69-20.25c0-10.36,8.48-19.21,19.9-19.21c11.27,0,19.96,8.41,19.96,19.21c0,3.29-0.81,6.41-2.31,9.12
		c-0.23,0.43-0.15,0.85,0.2,1.06C296.89,65.91,297.43,65.88,297.7,65.34z"/>
</g>
</svg>
