<?xml version="1.0" encoding="utf-8"?>
<!-- Generator: Adobe Illustrator 25.4.1, SVG Export Plug-In . SVG Version: 6.00 Build 0)  -->
<svg version="1.1" id="レイヤー_1" xmlns="http://www.w3.org/2000/svg" xmlns:xlink="http://www.w3.org/1999/xlink" x="0px"
	 y="0px" viewBox="0 0 248 248" style="enable-background:new 0 0 248 248;" xml:space="preserve">
<style type="text/css">
	.st0{fill:#FF0000;}
	.st1{fill:#FFFFFF;}
</style>
<g>
	<path class="st0" d="M238.98,66.23c-2.76-10.33-10.89-18.46-21.22-21.22C199.05,40,124,40,124,40s-75.05,0-93.77,5.02
		C19.91,47.78,11.78,55.91,9.02,66.23C4,84.95,4,124,4,124s0,39.05,5.02,57.77c2.76,10.33,10.89,18.46,21.22,21.22
		C48.95,208,124,208,124,208s75.05,0,93.77-5.02c10.33-2.76,18.46-10.89,21.22-21.22C244,163.05,244,124,244,124
		S244,84.95,238.98,66.23z"/>
	<polygon class="st1" points="100,160 162.35,124 100,88 	"/>
</g>
</svg>
