<?xml version="1.0" encoding="utf-8"?>
<!-- Generator: Adobe Illustrator 25.4.1, SVG Export Plug-In . SVG Version: 6.00 Build 0)  -->
<svg version="1.1" id="レイヤー_1" xmlns="http://www.w3.org/2000/svg" xmlns:xlink="http://www.w3.org/1999/xlink" x="0px"
	 y="0px" viewBox="0 0 146 24" style="enable-background:new 0 0 146 24;" xml:space="preserve">
<style type="text/css">
	.st0{fill:#FFFFFF;}
</style>
<g>
	<path class="st0" d="M0.19,0h8.47l11.18,17.88L30.99,0h8.37v23.75h-5.38L34.2,4.2L21.91,23.75h-4.31L5.39,4.2l0.14,19.55H0.19V0z"
		/>
	<path class="st0" d="M46.44,0h25.25v4.17H51.85v5.63h18.87v3.74H51.85v6.05H71.9v4.17H46.44V0z"/>
	<path class="st0" d="M77.94,0h8.51l17.84,19.76L104.19,0h5.23v23.75h-8.55L83.14,4.1l0.11,19.66h-5.3V0z"/>
	<path class="st0" d="M145.81,0v14.96c0,4.52-0.71,6.37-2.99,7.66c-2.03,1.18-4.06,1.39-12.46,1.39c-8.23,0-10.72-0.5-12.46-2.46
		c-1.21-1.39-1.57-3.03-1.57-7.41V0h5.48v12.43c0,3.17,0,3.17,0.18,4.17c0.39,2.53,1.78,2.99,8.9,2.99c3.21,0,6.16-0.14,6.98-0.36
		c1.39-0.36,2.14-1.21,2.35-2.71c0.07-0.43,0.07-0.43,0.11-3.74V0H145.81z"/>
</g>
</svg>
