<?xml version="1.0" encoding="utf-8"?>
<!-- Generator: Adobe Illustrator 25.4.1, SVG Export Plug-In . SVG Version: 6.00 Build 0)  -->
<svg version="1.1" id="レイヤー_1" xmlns="http://www.w3.org/2000/svg" xmlns:xlink="http://www.w3.org/1999/xlink" x="0px"
	 y="0px" viewBox="0 0 130 22" style="enable-background:new 0 0 130 22;" xml:space="preserve">
<style type="text/css">
	.st0{fill:#FFFFFF;}
</style>
<g>
	<path class="st0" d="M0.3,0.4h10l7.5,13.7l7.5-13.7h9.9v20.6H29l0.3-15.9l-9.2,15.9h-5l-9-15.9l0.2,15.9H0.3V0.4z"/>
	<path class="st0" d="M62.9,0.5c3.2,0.6,4.7,2.2,5.2,5.5c0.1,0.8,0.2,2.5,0.2,5c0,5-0.5,7-2.3,8.4c-1.2,1.1-3,1.5-6,1.7
		c-1.1,0.1-3.9,0.1-5.9,0.1c-4.9,0-7.4-0.1-8.7-0.3c-2.3-0.4-3.6-1.3-4.4-2.8c-0.8-1.5-1-3-1-7.5c0-3.5,0.1-4.3,0.4-5.7
		c0.6-2.2,1.8-3.4,4.1-4.1c1.7-0.5,3.6-0.6,9.1-0.6C59.6,0.2,61.5,0.3,62.9,0.5z M47.5,6c-0.8,0.7-1.1,1.7-1.1,4.6
		c0,3,0.2,4.1,1,4.8c0.8,0.7,1.9,0.8,6.6,0.8c5.4,0,6.5-0.2,7.2-1.2c0.6-0.7,0.7-1.8,0.7-4.5c0-5.2-0.1-5.3-7.8-5.3
		C49.6,5.3,48.3,5.4,47.5,6z"/>
	<path class="st0" d="M129.2,0.4v4.7h-16.7v3.6h15.7v4.1h-15.7v3.6h16.9v4.7h-23.1V0.4H129.2z"/>
	<path class="st0" d="M74.5,0.4h17.8c3.6,0,5.3,0.3,6.4,1.3c1.2,1,1.8,2.7,1.8,5.5c0,3.8-0.9,5.3-3.6,5.9c2.6,0.4,3.3,1.5,3.3,4.6
		v3.2h-6.4v-2.6c0-2.2-0.6-2.7-3.5-2.6h-9.6v5.2h-6.2V0.4z M90.5,10.8c3,0,3.6-0.4,3.6-2.4c0-1.3-0.1-1.9-0.5-2.3
		c-0.5-0.5-1-0.6-2.9-0.6h-10v5.3H90.5z"/>
</g>
</svg>
