<?xml version="1.0" encoding="utf-8"?>
<!-- Generator: Adobe Illustrator 25.4.1, SVG Export Plug-In . SVG Version: 6.00 Build 0)  -->
<svg version="1.1" id="レイヤー_1" xmlns="http://www.w3.org/2000/svg" xmlns:xlink="http://www.w3.org/1999/xlink" x="0px"
	 y="0px" viewBox="0 0 732 48" style="enable-background:new 0 0 732 48;" xml:space="preserve">
<style type="text/css">
	.st0{fill:#FFFFFF;}
</style>
<g>
	<path class="st0" d="M220.06,0h16.95l22.36,35.75L281.66,0h16.74v47.5h-10.76l0.43-39.1L263.5,47.5h-8.61L230.46,8.4l0.29,39.1
		h-10.68V0z"/>
	<path class="st0" d="M312.55,0h50.49v8.33h-39.67v11.25h37.75v7.48h-37.75v12.11h40.09v8.33h-50.92V0z"/>
	<path class="st0" d="M375.56,0h17.02l35.68,39.53L428.05,0h10.47v47.5h-17.09L385.96,8.19l0.21,39.31h-10.61V0z"/>
	<path class="st0" d="M511.28,0v29.91c0,9.04-1.42,12.75-5.98,15.31c-4.06,2.35-8.12,2.78-24.92,2.78c-16.45,0-21.44-1-24.93-4.92
		c-2.42-2.78-3.13-6.05-3.13-14.81V0h10.97v24.85c0,6.34,0,6.34,0.35,8.33c0.79,5.06,3.56,5.98,17.8,5.98
		c6.41,0,12.32-0.28,13.96-0.71c2.78-0.71,4.27-2.42,4.7-5.41c0.14-0.85,0.14-0.85,0.21-7.47V0H511.28z"/>
</g>
</svg>
