<?xml version="1.0" encoding="utf-8"?>
<!-- Generator: Adobe Illustrator 25.4.1, SVG Export Plug-In . SVG Version: 6.00 Build 0)  -->
<svg version="1.1" id="レイヤー_1" xmlns="http://www.w3.org/2000/svg" xmlns:xlink="http://www.w3.org/1999/xlink" x="0px"
	 y="0px" viewBox="0 0 732 48" style="enable-background:new 0 0 732 48;" xml:space="preserve">
<style type="text/css">
	.st0{fill:#FFFFFF;}
</style>
<g>
	<g>
		<g>
			<g>
				<path class="st0" d="M-0.17,0.49h40.6c9.94,0,14.59,1.13,17.83,4.37c2.61,2.54,3.67,5.49,4.16,11.49
					c0.14,2.18,0.28,5.43,0.28,7.68c0,4.23-0.28,9.09-0.7,11.77c-0.77,5.64-4.72,10.01-9.87,11c-2.68,0.56-4.79,0.7-9.8,0.7h-42.5
					V0.49z M38.1,36.3c3.88,0,4.16,0,5.85-0.57c3.45-1.06,4.37-3.52,4.37-11.63c0-9.87-1.69-11.91-9.94-11.91H14.14V36.3H38.1z"/>
				<path class="st0" d="M74.04,0.49h14.31V47.5H74.04V0.49z"/>
				<path class="st0" d="M113.86,32.49c0.14,3.24,0.49,4.02,2.18,4.65c1.06,0.42,5.08,0.7,9.59,0.7c16.56,0,18.54-0.49,18.54-4.37
					c0-1.9-0.92-3.32-2.4-3.81c-1.55-0.49-1.55-0.49-8.95-0.56h-12.97c-8.67,0-12.26-0.5-15.29-2.05c-3.38-1.76-4.93-5.5-4.93-11.91
					c0-8.46,2.4-12.05,9.16-13.67c3.81-0.99,9.3-1.34,19.6-1.34c16.49,0,20.3,0.42,23.68,2.61c3.24,2.18,4.3,5.07,4.3,12.12h-13.96
					c0-4.09-1.41-4.65-10.64-4.65c-4.58,0-10.71,0.14-12.97,0.28c-3.81,0.28-5.07,1.27-5.07,3.95c0,1.97,0.99,3.24,3.03,3.74
					c0.85,0.21,1.13,0.28,5.78,0.35h13.32c1.27,0,7.61,0.21,10.01,0.35c8.95,0.42,12.48,4.37,12.48,13.82
					c0,8.67-2.54,12.47-9.44,13.95c-3.52,0.77-10.5,1.2-20.72,1.2c-16.28,0-19.88-0.35-24.04-2.47c-2.89-1.41-4.37-5.01-4.37-10.58
					c0-0.42,0-1.34,0.07-2.32H113.86z"/>
				<path class="st0" d="M228.25,29.81c-0.07,6.84-0.28,9.16-1.27,11.28c-1.83,4.02-5.64,5.92-12.97,6.41
					c-2.89,0.28-8.53,0.35-17.9,0.35c-13.53,0-17.9-0.63-21.71-3.1c-4.65-2.96-5.99-7.89-5.99-21.85c0-12.41,1.41-16.85,6.34-19.67
					c4.23-2.47,8.74-3.1,21.92-3.1c17.55,0,21.36,0.35,25.37,2.32c3.81,1.9,5.57,6.06,5.57,12.97v1.55h-13.67
					c-0.28-5.14-1.34-5.57-13.75-5.57c-11.7,0-13.81,0.28-15.58,1.83c-1.69,1.55-2.04,3.45-2.04,11.07
					c0,11.28,1.06,12.12,14.8,12.12c10.64,0,12.19-0.07,14.17-0.92c2.04-0.85,2.82-2.33,2.82-5.71H228.25z"/>
				<path class="st0" d="M290.55,0.7c7.26,1.34,10.78,5.08,11.77,12.62c0.28,1.9,0.42,5.71,0.42,11.42c0,11.35-1.2,15.93-5.22,19.24
					c-2.82,2.4-6.77,3.52-13.6,3.81c-2.54,0.14-8.81,0.21-13.39,0.21c-11.2,0-16.92-0.21-19.73-0.77
					c-5.21-0.92-8.25-2.89-10.01-6.34c-1.83-3.46-2.25-6.91-2.25-17.2c0-7.9,0.14-9.87,0.99-13.04c1.34-5,4.09-7.68,9.37-9.23
					C252.84,0.28,257.14,0,269.55,0C283.08,0,287.24,0.14,290.55,0.7z M255.45,13.18c-1.9,1.48-2.47,3.81-2.47,10.58
					c0,6.91,0.56,9.44,2.32,10.92c1.9,1.55,4.23,1.83,15.01,1.83c12.34,0,14.87-0.42,16.49-2.68c1.34-1.69,1.69-4.09,1.69-10.36
					c0-11.84-0.21-11.98-17.83-11.98C260.17,11.49,257.28,11.84,255.45,13.18z"/>
				<path class="st0" d="M360.18,16.42c0-3.67-1.62-5.08-5.92-5.22h-3.59l-5.07-0.07l-5.21,0.07c-6.84,0-6.84,0-8.53,0.42
					c-2.61,0.63-3.74,1.97-4.09,4.94c-0.21,1.27-0.35,5.56-0.35,8.6c0,6.34,0.64,8.88,2.61,10.22c1.62,1.06,3.59,1.48,7.33,1.55
					C338.89,37,338.89,37,347.7,37c9.37,0.07,11.14-0.42,12.34-3.52c0.14-0.57,0.21-1.2,0.21-2.61v-0.5v-0.63h-18.11v-8.74h32.07
					v6.48c0,7.76-0.28,10.5-1.2,13.04c-1.62,4.37-4.93,6.49-10.85,7.12c-1.48,0.14-5.78,0.21-19.66,0.21
					c-10.79,0-14.94-0.21-17.9-0.85c-5.14-1.13-8.18-3.32-9.8-7.19c-1.41-3.17-1.76-6.49-1.76-15.22c0-10.08,0.56-14.1,2.4-17.41
					c2.11-3.67,5.43-5.57,11.49-6.41c3.24-0.42,8.95-0.63,17.9-0.63c12.83,0,16.92,0.21,19.88,0.92c7.26,1.83,9.58,5.5,9.51,15.37
					H360.18z"/>
				<path class="st0" d="M385.55,0.49h40.53c8.32,0,11.98,0.71,14.66,2.96c2.75,2.19,4.02,6.2,4.02,12.55
					c0,8.74-2.11,12.2-8.11,13.53c5.85,0.99,7.61,3.45,7.47,10.57v7.4H429.6v-5.85c-0.07-5.08-1.48-6.13-7.89-5.99h-21.92V47.5
					h-14.24V0.49z M422.13,24.18c6.91,0,8.25-0.85,8.25-5.5c0-3.03-0.28-4.3-1.2-5.29c-1.06-1.13-2.25-1.34-6.55-1.34h-22.84v12.12
					H422.13z"/>
				<path class="st0" d="M477.31,0.49h19.17L522.2,47.5h-15.65l-4.65-8.38H471.6l-4.51,8.38h-16.21L477.31,0.49z M496.9,29.32
					l-10.15-18.75l-10.01,18.75H496.9z"/>
				<path class="st0" d="M528.75,0.49h35.95c9.09,0,11.42,0.28,14.38,1.76c4.72,2.33,6.49,6.63,6.49,15.51c0,8.95-1.62,13.6-5.5,16
					c-2.75,1.7-5.92,2.19-14.1,2.19h-22.98V47.5h-14.24V0.49z M563.78,24.53c5.85,0,7.54-1.27,7.54-5.71c0-5.64-1.41-6.91-7.54-6.91
					h-20.79v12.62H563.78z"/>
				<path class="st0" d="M595.63,0.49h14.31V17.9h32.56V0.49h14.31V47.5H642.5V29.53h-32.56V47.5h-14.31V0.49z"/>
				<path class="st0" d="M690.64,31.22L663.78,0.49h18.26l15.86,19.46l15.72-19.46h17.9l-26.5,30.73V47.5h-14.38V31.22z"/>
			</g>
		</g>
	</g>
</g>
</svg>
