<?xml version="1.0" encoding="utf-8"?>
<!-- Generator: Adobe Illustrator 25.4.1, SVG Export Plug-In . SVG Version: 6.00 Build 0)  -->
<svg version="1.1" id="レイヤー_1" xmlns="http://www.w3.org/2000/svg" xmlns:xlink="http://www.w3.org/1999/xlink" x="0px"
	 y="0px" viewBox="0 0 732 48" style="enable-background:new 0 0 732 48;" xml:space="preserve">
<style type="text/css">
	.st0{fill:#FFFFFF;}
</style>
<g>
	<g>
		<g>
			<path class="st0" d="M215.16,0.35h22.9l28.64,35.95l-0.35-35.95h13.61v47.29h-23.11l-28.22-35.59l0.36,35.59h-13.83V0.35z"/>
			<path class="st0" d="M344.62,0.35v10.71H306.4v8.15h36.02v9.36H306.4v8.37h38.71v10.71h-52.89V0.35H344.62z"/>
			<path class="st0" d="M366.1,0.35l13.76,36.02l12.19-36.02h17.37l11.84,36.02l14.18-36.02h14.61l-19.57,47.29h-19.28L400.7,13.61
				l-10.99,34.03h-19.14L351.49,0.35H366.1z"/>
			<path class="st0" d="M471.45,32.54c0.14,3.26,0.5,4.04,2.2,4.68c1.06,0.42,5.11,0.71,9.64,0.71c16.66,0,18.65-0.49,18.65-4.4
				c0-1.91-0.92-3.34-2.41-3.83c-1.56-0.49-1.56-0.49-9-0.57h-13.05c-8.72,0-12.34-0.5-15.39-2.06c-3.4-1.77-4.96-5.53-4.96-11.98
				c0-8.51,2.41-12.13,9.22-13.76C470.17,0.35,475.7,0,486.05,0c16.59,0,20.42,0.42,23.82,2.62c3.26,2.2,4.33,5.1,4.33,12.19h-14.04
				c0-4.11-1.42-4.68-10.71-4.68c-4.61,0-10.78,0.14-13.05,0.28c-3.83,0.28-5.1,1.28-5.1,3.97c0,1.99,0.99,3.26,3.05,3.76
				c0.85,0.21,1.14,0.28,5.82,0.35h13.4c1.28,0,7.66,0.21,10.07,0.36c9,0.43,12.55,4.4,12.55,13.9c0,8.72-2.55,12.55-9.5,14.04
				c-3.55,0.78-10.57,1.21-20.84,1.21c-16.38,0-19.99-0.36-24.18-2.48c-2.91-1.42-4.4-5.04-4.4-10.64c0-0.42,0-1.35,0.07-2.34
				H471.45z"/>
		</g>
	</g>
</g>
</svg>
