<?xml version="1.0" encoding="utf-8"?>
<!-- Generator: Adobe Illustrator 25.4.1, SVG Export Plug-In . SVG Version: 6.00 Build 0)  -->
<svg version="1.1" id="レイヤー_1" xmlns="http://www.w3.org/2000/svg" xmlns:xlink="http://www.w3.org/1999/xlink" x="0px"
	 y="0px" viewBox="0 0 732 48" style="enable-background:new 0 0 732 48;" xml:space="preserve">
<style type="text/css">
	.st0{fill:#FFFFFF;}
</style>
<g>
	<g>
		<path class="st0" d="M207.45,0.49h22.7l17.13,31.23l17.06-31.23h22.55V47.5h-13.96l0.71-36.3l-20.86,36.3h-11.42l-20.51-36.3
			l0.42,36.3h-13.82V0.49z"/>
		<path class="st0" d="M350.17,0.7c7.26,1.34,10.78,5.08,11.77,12.62c0.28,1.9,0.42,5.71,0.42,11.42c0,11.35-1.2,15.93-5.22,19.24
			c-2.82,2.4-6.77,3.52-13.6,3.81c-2.54,0.14-8.81,0.21-13.39,0.21c-11.2,0-16.92-0.21-19.73-0.77c-5.21-0.92-8.25-2.89-10.01-6.34
			c-1.83-3.46-2.25-6.91-2.25-17.2c0-7.9,0.14-9.87,0.99-13.04c1.34-5,4.09-7.68,9.37-9.23C312.46,0.28,316.76,0,329.17,0
			C342.7,0,346.86,0.14,350.17,0.7z M315.07,13.18c-1.9,1.48-2.47,3.81-2.47,10.58c0,6.91,0.56,9.44,2.32,10.92
			c1.9,1.55,4.23,1.83,15.01,1.83c12.34,0,14.87-0.42,16.49-2.68c1.34-1.69,1.69-4.09,1.69-10.36c0-11.84-0.21-11.98-17.83-11.98
			C319.79,11.49,316.9,11.84,315.07,13.18z"/>
		<path class="st0" d="M368.42,0.49h15.79l18.54,35.53l18.96-35.53h15.93L411.63,47.5h-18.11L368.42,0.49z"/>
		<path class="st0" d="M444.74,0.49h14.31V47.5h-14.31V0.49z"/>
		<path class="st0" d="M523.4,0.49v10.65h-37.99v8.11h35.81v9.3h-35.81v8.32h38.48V47.5h-52.58V0.49H523.4z"/>
	</g>
</g>
</svg>
