<?xml version="1.0" encoding="utf-8"?>
<!-- Generator: Adobe Illustrator 25.4.1, SVG Export Plug-In . SVG Version: 6.00 Build 0)  -->
<svg version="1.1" id="レイヤー_1" xmlns="http://www.w3.org/2000/svg" xmlns:xlink="http://www.w3.org/1999/xlink" x="0px"
	 y="0px" viewBox="0 0 60 30" style="enable-background:new 0 0 60 30;" xml:space="preserve">
<style type="text/css">
	.st0{fill:#FFFFFF;}
</style>
<g>
	<g>
		<path class="st0" d="M1.42,16.43l4.29,3.09c4.19,3.18,9.09,4.74,14.04,4.5l8.67-0.4l5.31,5.97c0.28,0.32,0.72,0.46,1.14,0.38
			l7.07-1.4c0.73-0.14,1.16-0.91,0.9-1.61l-2.18-5.82V8.9l2.19-5.83c0.26-0.7-0.16-1.46-0.89-1.61L34.8,0.02
			c-0.42-0.09-0.86,0.06-1.15,0.39l-5.26,6.01l-8.64-0.39C14.8,5.78,9.9,7.35,5.71,10.53l-4.29,3.09
			C0.46,14.31,0.46,15.74,1.42,16.43z M20.05,11.41c2,0,3.62,1.62,3.62,3.62s-1.62,3.62-3.62,3.62s-3.62-1.62-3.62-3.62
			C16.43,13.03,18.05,11.41,20.05,11.41z"/>
		<path class="st0" d="M43.58,10.3l0,9.45c0,0.26,0.21,0.47,0.47,0.48c0.5,0.01,1.21,0.01,1.46,0.01c8.35,0,13.8-5.22,13.8-5.22
			s-5.45-5.22-13.8-5.22c-0.25,0-0.95,0-1.46,0.01C43.79,9.83,43.58,10.04,43.58,10.3z"/>
	</g>
</g>
</svg>
