<?xml version="1.0" encoding="utf-8"?>
<!-- Generator: Adobe Illustrator 25.4.1, SVG Export Plug-In . SVG Version: 6.00 Build 0)  -->
<svg version="1.1" id="レイヤー_1" xmlns="http://www.w3.org/2000/svg" xmlns:xlink="http://www.w3.org/1999/xlink" x="0px"
	 y="0px" viewBox="0 0 60 30" style="enable-background:new 0 0 60 30;" xml:space="preserve">
<style type="text/css">
	.st0{fill:#FFFFFF;}
</style>
<g>
	<g>
		<path class="st0" d="M58.58,13.57l-4.29-3.09C50.1,7.3,45.2,5.73,40.25,5.98l-8.67,0.4L26.26,0.4c-0.28-0.32-0.72-0.46-1.14-0.38
			l-7.07,1.4c-0.73,0.14-1.16,0.91-0.9,1.61l2.18,5.82V21.1l-2.19,5.83c-0.26,0.7,0.16,1.46,0.89,1.61l7.15,1.45
			c0.42,0.09,0.86-0.06,1.15-0.39l5.26-6.01l8.64,0.39c4.95,0.25,9.85-1.32,14.04-4.5l4.29-3.09
			C59.54,15.69,59.54,14.26,58.58,13.57z M39.95,18.59c-2,0-3.62-1.62-3.62-3.62s1.62-3.62,3.62-3.62s3.62,1.62,3.62,3.62
			C43.57,16.97,41.95,18.59,39.95,18.59z"/>
		<path class="st0" d="M16.42,19.7l0-9.45c0-0.26-0.21-0.47-0.47-0.48c-0.5-0.01-1.21-0.01-1.46-0.01c-8.35,0-13.8,5.22-13.8,5.22
			s5.45,5.22,13.8,5.22c0.25,0,0.95,0,1.46-0.01C16.21,20.17,16.42,19.96,16.42,19.7z"/>
	</g>
</g>
</svg>
