<?xml version="1.0" encoding="utf-8"?>
<!-- Generator: Adobe Illustrator 25.4.1, SVG Export Plug-In . SVG Version: 6.00 Build 0)  -->
<svg version="1.1" id="レイヤー_1" xmlns="http://www.w3.org/2000/svg" xmlns:xlink="http://www.w3.org/1999/xlink" x="0px"
	 y="0px" viewBox="0 0 448 86" style="enable-background:new 0 0 448 86;" xml:space="preserve">
<style type="text/css">
	.st0{fill:#FFFFFF;}
</style>
<g>
	<g>
		<g>
			<path class="st0" d="M157.73,27.96c0.08,1.73,0.26,2.15,1.17,2.49c0.56,0.23,2.71,0.38,5.12,0.38c8.85,0,9.9-0.26,9.9-2.33
				c0-1.02-0.49-1.77-1.28-2.03c-0.83-0.26-0.83-0.26-4.78-0.3h-6.93c-4.63,0-6.55-0.26-8.17-1.09c-1.81-0.94-2.64-2.94-2.64-6.36
				c0-4.52,1.28-6.44,4.89-7.3c2.03-0.53,4.97-0.71,10.47-0.71c8.81,0,10.84,0.22,12.65,1.39c1.73,1.17,2.3,2.71,2.3,6.48h-7.46
				c0-2.18-0.75-2.49-5.69-2.49c-2.45,0-5.72,0.08-6.93,0.15c-2.03,0.15-2.71,0.68-2.71,2.11c0,1.05,0.53,1.73,1.62,2
				c0.45,0.11,0.6,0.15,3.09,0.19h7.12c0.68,0,4.07,0.11,5.35,0.19c4.78,0.23,6.67,2.33,6.67,7.38c0,4.63-1.36,6.66-5.05,7.46
				c-1.88,0.41-5.61,0.64-11.07,0.64c-8.7,0-10.62-0.19-12.84-1.32c-1.54-0.75-2.33-2.67-2.33-5.65c0-0.23,0-0.71,0.04-1.24H157.73z
				"/>
			<path class="st0" d="M218.08,26.53c-0.04,3.65-0.15,4.89-0.68,6.02c-0.98,2.15-3.01,3.16-6.93,3.43
				c-1.54,0.15-4.56,0.19-9.56,0.19c-7.23,0-9.56-0.34-11.6-1.66c-2.49-1.58-3.2-4.22-3.2-11.67c0-6.63,0.75-9,3.39-10.5
				c2.26-1.32,4.67-1.66,11.71-1.66c9.37,0,11.41,0.19,13.55,1.24c2.03,1.02,2.97,3.24,2.97,6.93v0.83h-7.3
				c-0.15-2.75-0.72-2.97-7.34-2.97c-6.25,0-7.38,0.15-8.32,0.98c-0.9,0.83-1.09,1.84-1.09,5.91c0,6.03,0.56,6.48,7.91,6.48
				c5.69,0,6.51-0.04,7.57-0.49c1.09-0.45,1.51-1.24,1.51-3.05H218.08z"/>
			<path class="st0" d="M224.11,10.86h21.65c4.44,0,6.4,0.38,7.83,1.58c1.47,1.17,2.15,3.31,2.15,6.7c0,4.67-1.13,6.51-4.33,7.23
				c3.12,0.53,4.07,1.84,3.99,5.65v3.95h-7.76v-3.12c-0.04-2.71-0.79-3.28-4.22-3.2h-11.71v6.33h-7.61V10.86z M243.65,23.51
				c3.69,0,4.4-0.45,4.4-2.94c0-1.62-0.15-2.3-0.64-2.82c-0.56-0.6-1.2-0.71-3.5-0.71h-12.2v6.48H243.65z"/>
			<path class="st0" d="M273.88,10.86h10.24l13.74,25.11h-8.36l-2.48-4.48h-16.19l-2.41,4.48h-8.66L273.88,10.86z M284.35,26.26
				l-5.42-10.01l-5.35,10.01H284.35z"/>
			<path class="st0" d="M302.12,10.86h12.12l9.15,16.68l9.11-16.68h12.05v25.11h-7.46l0.38-19.39l-11.14,19.39h-6.1l-10.96-19.39
				l0.23,19.39h-7.38V10.86z"/>
			<path class="st0" d="M351.11,10.86h22.67c2.9,0,4.48,0.26,5.8,0.9c2.03,1.05,2.86,2.75,2.86,5.95c0,3.27-1.13,4.97-3.5,5.42
				c3.39,0.64,4.52,2.11,4.52,5.76c0,3.16-0.9,5.16-2.9,6.21c-1.17,0.6-2.82,0.87-5.72,0.87h-23.72V10.86z M371.4,20.88
				c1.47,0,2-0.07,2.48-0.3c0.6-0.34,0.98-1.02,0.98-1.88c0-1.02-0.49-1.77-1.32-2.07c-0.49-0.15-0.87-0.19-2.33-0.19h-12.65v4.44
				H371.4z M372.23,30.4c1.54,0,1.84-0.04,2.33-0.19c0.75-0.26,1.2-1.02,1.2-2.07c0-1.09-0.45-1.84-1.28-2.15
				c-0.45-0.15-0.75-0.19-2.45-0.19h-13.48v4.59H372.23z"/>
			<path class="st0" d="M389.47,10.86h7.64v18.9h17.28v6.21h-24.93V10.86z"/>
			<path class="st0" d="M447,10.86v5.69h-20.29v4.33h19.13v4.97h-19.13v4.44h20.56v5.69h-28.09V10.86H447z"/>
			<path class="st0" d="M150.65,47.04h19.2c4.86,0,6.1,0.15,7.68,0.94c2.52,1.24,3.46,3.54,3.46,8.28c0,4.78-0.87,7.27-2.94,8.55
				c-1.47,0.9-3.16,1.17-7.53,1.17h-12.27v6.18h-7.61V47.04z M169.36,59.88c3.13,0,4.03-0.68,4.03-3.05c0-3.01-0.75-3.69-4.03-3.69
				h-11.11v6.74H169.36z"/>
			<path class="st0" d="M186.38,47.04h7.64v18.9h17.28v6.21h-24.93V47.04z"/>
			<path class="st0" d="M228.7,47.04h10.24l13.74,25.11h-8.36l-2.48-4.48h-16.19l-2.41,4.48h-8.66L228.7,47.04z M239.17,62.44
				l-5.42-10.01l-5.35,10.01H239.17z"/>
			<path class="st0" d="M256.94,47.04h12.16l15.21,19.09l-0.19-19.09h7.23v25.11h-12.27l-14.99-18.9l0.19,18.9h-7.34V47.04z"/>
			<path class="st0" d="M325.69,47.04v5.69H305.4v4.33h19.13v4.97H305.4v4.44h20.56v5.69h-28.09V47.04H325.69z"/>
			<path class="st0" d="M341.28,53.25H330.1v-6.21h30.01v6.21h-11.18v18.9h-7.64V53.25z"/>
		</g>
	</g>
	<g>
		<path class="st0" d="M134.19,39.13c-0.54-4.82-5.12-8.67-13.22-11.3c4.84-7.12,6.18-13.12,3.58-17.33
			c-3.81-6.17-14.43-6.59-30.72-1.24l-2.49,0.83C84.47,3.82,75.33,0,65.3,0C45.8,0,29.68,14.43,27.02,33.19l-3.5,1.27
			c-1.65,0.6-3.2,1.2-4.67,1.81c-0.63-0.48-1.35-0.88-2.13-1.17c-4.31-1.6-9.1,0.6-10.7,4.91c-0.49,1.31-0.62,2.67-0.45,3.97
			C2,47.2,0.39,50.6,0.79,54.16c0.61,5.42,5.95,8.86,12.34,11.05c-3.93,6.56-5.05,12.18-2.81,15.81c2.04,3.3,6.01,4.97,11.8,4.97
			c4.07,0,9.01-0.82,14.68-2.44c2.78-0.8,5.73-1.78,8.76-2.91c3.05-1.14,6.37-2.53,9.86-4.13c1.09-0.5,2.18-1,3.28-1.53
			c3.87-1.86,7.74-3.87,11.51-5.98c0.8-0.45,1.59-0.91,2.39-1.37c3.5-0.44,6.97-0.94,10.34-1.52c1.61-0.28,3.18-0.57,4.74-0.87
			c0.7-0.14,1.39-0.27,2.08-0.41c1.07-0.22,2.13-0.45,3.18-0.68c7.08-1.59,13.36-3.41,18.76-5.4c0.8,0.77,1.76,1.39,2.87,1.8
			c4.31,1.6,9.1-0.6,10.7-4.91c0.46-1.23,0.59-2.5,0.47-3.72C131.71,47.9,134.69,43.54,134.19,39.13z M30.66,55.87
			c1.06,2.13,2.3,4.15,3.72,6.04c-3.12-0.23-6.06-0.56-8.79-0.98C27.16,59.2,28.87,57.5,30.66,55.87z M7.79,53.37
			c-0.06-0.57,0.06-1.77,1.58-3.44c0.49,0.31,1.01,0.57,1.57,0.78c4.31,1.6,9.1-0.6,10.7-4.91c0.39-1.06,0.55-2.15,0.51-3.21
			c1.02-0.4,2.1-0.8,3.26-1.21l1.28-0.45c0.14,2.47,0.52,4.87,1.1,7.2l-1.37,1.29c-3.53,3.32-6.57,6.61-9.07,9.77
			C10.26,57.17,7.94,54.73,7.79,53.37z M52.83,69.98c-0.96,0.44-1.92,0.87-2.86,1.28c-5.41,2.36-10.48,4.22-15.09,5.53
			c-12.67,3.62-17.62,2.04-18.55,0.54c-0.3-0.49-0.41-2.85,2.67-7.86c0.46-0.75,0.98-1.52,1.53-2.29c1.06,0.22,2.11,0.41,3.13,0.58
			c2.85,0.47,5.94,0.84,9.16,1.1c3.24,0.27,6.84,0.43,10.68,0.48c0.85,0.01,1.71,0.02,2.57,0.02l1.05,0
			c2.47-0.02,4.96-0.08,7.46-0.19C53.99,69.43,53.41,69.71,52.83,69.98z M79.99,28.52c-2.38,2.87-10.37,1.26-7.76-3.22
			C74.43,21.53,83.15,24.71,79.99,28.52z M79.92,20.41c-6,1.77-15.66-7.96-7.82-11.76C78.71,5.44,87.9,18.05,79.92,20.41z
			 M87.17,22.79c-0.73,1.71-4.79,2.09-4.18-0.43C83.51,20.23,88.14,20.51,87.17,22.79z M96.53,15.73
			c15.02-5.07,20.91-3.36,22.03-1.54c1,1.63-0.38,5.82-4.95,11.76c-3.01-0.59-6.31-1.06-9.92-1.41c-0.27-0.03-0.85-0.06-1.42-0.1
			c-0.45-0.03-0.83-0.05-1.02-0.07l-0.03,0c-1.23-3.09-2.84-5.98-4.78-8.62L96.53,15.73z M108.28,32.11
			c-1.32,1.38-2.78,2.82-4.38,4.31c-0.09-1.65-0.3-3.26-0.59-4.85c0.08,0,0.14,0.01,0.2,0.01C105.21,31.74,106.8,31.91,108.28,32.11
			z M122.15,45.85c-0.55-0.37-1.14-0.69-1.78-0.93c-4.31-1.6-9.1,0.6-10.69,4.91c-0.28,0.76-0.44,1.53-0.49,2.3
			c-2.63,0.98-5.57,1.94-8.82,2.87c1.26-2.7,2.22-5.56,2.83-8.55c5.33-4.48,9.78-8.79,13.29-12.83c7.87,1.99,10.54,4.64,10.73,6.29
			C127.36,41.32,125.72,43.45,122.15,45.85z"/>
		<path class="st0" d="M92.91,66.1c-0.93,0.21-1.87,0.41-2.82,0.6c-0.69,0.14-1.39,0.28-2.09,0.42c-1.76,0.34-3.32,0.63-4.78,0.88
			c-3.25,0.56-6.64,1.06-10.1,1.49l-0.33,0.19c-0.6,0.35-1.21,0.7-1.81,1.04c-3.8,2.13-7.7,4.15-11.6,6.02
			c-0.26,0.13-0.53,0.25-0.79,0.38c2.18,0.38,4.42,0.58,6.7,0.58C76.11,77.7,85.89,73.26,92.91,66.1"/>
	</g>
</g>
</svg>
