<?xml version="1.0" encoding="utf-8"?>
<!-- Generator: Adobe Illustrator 25.4.1, SVG Export Plug-In . SVG Version: 6.00 Build 0)  -->
<svg version="1.1" id="レイヤー_1" xmlns="http://www.w3.org/2000/svg" xmlns:xlink="http://www.w3.org/1999/xlink" x="0px"
	 y="0px" viewBox="0 0 332 76" style="enable-background:new 0 0 332 76;" xml:space="preserve">
<style type="text/css">
	.st0{fill:#FFFFFF;}
</style>
<g>
	<g>
		<g>
			<path class="st0" d="M18.5,16.38h22.61l28.28,35.49l-0.35-35.49h13.44v46.7H59.66L31.8,27.93l0.35,35.14H18.5V16.38z"/>
			<path class="st0" d="M146.32,16.38v10.57h-37.73V35h35.56v9.24h-35.56v8.26h38.22v10.57H94.59v-46.7H146.32z"/>
			<path class="st0" d="M167.53,16.38l13.58,35.56l12.04-35.56h17.15l11.69,35.56l14-35.56h14.42l-19.32,46.7h-19.04l-10.36-33.6
				l-10.85,33.6h-18.9l-18.83-46.7H167.53z"/>
			<path class="st0" d="M271.54,48.16c0.14,3.22,0.49,3.99,2.17,4.62c1.05,0.42,5.04,0.7,9.52,0.7c16.45,0,18.41-0.49,18.41-4.34
				c0-1.89-0.91-3.29-2.38-3.78c-1.54-0.49-1.54-0.49-8.89-0.56H277.5c-8.61,0-12.18-0.49-15.19-2.03c-3.36-1.75-4.9-5.46-4.9-11.83
				c0-8.4,2.38-11.97,9.1-13.58c3.78-0.98,9.24-1.33,19.46-1.33c16.38,0,20.16,0.42,23.52,2.59c3.22,2.17,4.27,5.04,4.27,12.04
				H299.9c0-4.06-1.4-4.62-10.57-4.62c-4.55,0-10.64,0.14-12.88,0.28c-3.78,0.28-5.04,1.26-5.04,3.92c0,1.96,0.98,3.22,3.01,3.71
				c0.84,0.21,1.12,0.28,5.74,0.35h13.23c1.26,0,7.56,0.21,9.94,0.35c8.89,0.42,12.39,4.34,12.39,13.72
				c0,8.61-2.52,12.39-9.38,13.86c-3.5,0.77-10.43,1.19-20.58,1.19c-16.17,0-19.74-0.35-23.87-2.45c-2.87-1.4-4.34-4.97-4.34-10.5
				c0-0.42,0-1.33,0.07-2.31H271.54z"/>
		</g>
	</g>
	<path class="st0" d="M329.2,76H2.8c-1.11,0-2-0.89-2-2V2c0-1.11,0.89-2,2-2H329.2c1.11,0,2,0.89,2,2v72
		C331.2,75.11,330.3,76,329.2,76z M4.8,72H327.2V4H4.8V72z"/>
</g>
</svg>
