<?xml version="1.0" encoding="utf-8"?>
<!-- Generator: Adobe Illustrator 25.4.1, SVG Export Plug-In . SVG Version: 6.00 Build 0)  -->
<svg version="1.1" id="レイヤー_1" xmlns="http://www.w3.org/2000/svg" xmlns:xlink="http://www.w3.org/1999/xlink" x="0px"
	 y="0px" viewBox="0 0 762 76" style="enable-background:new 0 0 762 76;" xml:space="preserve">
<style type="text/css">
	.st0{fill:#FFFFFF;}
</style>
<g>
	<g>
		<g>
			<g>
				<path class="st0" d="M17.5,16.38h40.32c9.87,0,14.49,1.12,17.71,4.34c2.59,2.52,3.64,5.46,4.13,11.41
					c0.14,2.17,0.28,5.39,0.28,7.63c0,4.2-0.28,9.03-0.7,11.69c-0.77,5.6-4.69,9.94-9.8,10.92c-2.66,0.56-4.76,0.7-9.73,0.7H17.5
					V16.38z M55.51,51.95c3.85,0,4.13,0,5.81-0.56c3.43-1.05,4.34-3.5,4.34-11.55c0-9.8-1.68-11.83-9.87-11.83H31.71v23.94H55.51z"
					/>
				<path class="st0" d="M91.21,16.38h14.21v46.7H91.21V16.38z"/>
				<path class="st0" d="M130.76,48.16c0.14,3.22,0.49,3.99,2.17,4.62c1.05,0.42,5.04,0.7,9.52,0.7c16.45,0,18.41-0.49,18.41-4.34
					c0-1.89-0.91-3.29-2.38-3.78c-1.54-0.49-1.54-0.49-8.89-0.56h-12.88c-8.61,0-12.18-0.49-15.19-2.03
					c-3.36-1.75-4.9-5.46-4.9-11.83c0-8.4,2.38-11.97,9.1-13.58c3.78-0.98,9.24-1.33,19.46-1.33c16.38,0,20.16,0.42,23.52,2.59
					c3.22,2.17,4.27,5.04,4.27,12.04h-13.86c0-4.06-1.4-4.62-10.57-4.62c-4.55,0-10.64,0.14-12.88,0.28
					c-3.78,0.28-5.04,1.26-5.04,3.92c0,1.96,0.98,3.22,3.01,3.71c0.84,0.21,1.12,0.28,5.74,0.35h13.23c1.26,0,7.56,0.21,9.94,0.35
					c8.89,0.42,12.39,4.34,12.39,13.72c0,8.61-2.52,12.39-9.38,13.86c-3.5,0.77-10.43,1.19-20.58,1.19
					c-16.17,0-19.74-0.35-23.87-2.45c-2.87-1.4-4.34-4.97-4.34-10.5c0-0.42,0-1.33,0.07-2.31H130.76z"/>
				<path class="st0" d="M244.37,45.5c-0.07,6.79-0.28,9.1-1.26,11.2c-1.82,3.99-5.6,5.88-12.88,6.37
					c-2.87,0.28-8.47,0.35-17.78,0.35c-13.44,0-17.78-0.63-21.56-3.08c-4.62-2.94-5.95-7.84-5.95-21.7c0-12.32,1.4-16.73,6.3-19.53
					c4.2-2.45,8.68-3.08,21.77-3.08c17.43,0,21.21,0.35,25.2,2.31c3.78,1.89,5.53,6.02,5.53,12.88v1.54h-13.58
					c-0.28-5.11-1.33-5.53-13.65-5.53c-11.62,0-13.72,0.28-15.47,1.82c-1.68,1.54-2.03,3.43-2.03,10.99
					c0,11.2,1.05,12.04,14.7,12.04c10.57,0,12.11-0.07,14.07-0.91c2.03-0.84,2.8-2.31,2.8-5.67H244.37z"/>
				<path class="st0" d="M306.25,16.59c7.21,1.33,10.71,5.04,11.69,12.53c0.28,1.89,0.42,5.67,0.42,11.34
					c0,11.27-1.19,15.82-5.18,19.11c-2.8,2.38-6.72,3.5-13.51,3.78c-2.52,0.14-8.75,0.21-13.3,0.21c-11.13,0-16.8-0.21-19.6-0.77
					c-5.18-0.91-8.19-2.87-9.94-6.3c-1.82-3.43-2.24-6.86-2.24-17.08c0-7.84,0.14-9.8,0.98-12.95c1.33-4.97,4.06-7.63,9.31-9.17
					c3.92-1.12,8.19-1.4,20.51-1.4C298.83,15.89,302.96,16.03,306.25,16.59z M271.39,28.98c-1.89,1.47-2.45,3.78-2.45,10.5
					c0,6.86,0.56,9.38,2.31,10.85c1.89,1.54,4.2,1.82,14.91,1.82c12.25,0,14.77-0.42,16.38-2.66c1.33-1.68,1.68-4.06,1.68-10.29
					c0-11.76-0.21-11.9-17.71-11.9C276.08,27.3,273.21,27.65,271.39,28.98z"/>
				<path class="st0" d="M375.41,32.2c0-3.64-1.61-5.04-5.88-5.18h-3.57l-5.04-0.07l-5.18,0.07c-6.79,0-6.79,0-8.47,0.42
					c-2.59,0.63-3.71,1.96-4.06,4.9c-0.21,1.26-0.35,5.53-0.35,8.54c0,6.3,0.63,8.82,2.59,10.15c1.61,1.05,3.57,1.47,7.28,1.54
					c1.54,0.07,1.54,0.07,10.29,0.07c9.31,0.07,11.06-0.42,12.25-3.5c0.14-0.56,0.21-1.19,0.21-2.59v-0.49v-0.63h-17.99v-8.68h31.85
					v6.44c0,7.7-0.28,10.43-1.19,12.95c-1.61,4.34-4.9,6.44-10.78,7.07c-1.47,0.14-5.74,0.21-19.53,0.21
					c-10.71,0-14.84-0.21-17.78-0.84c-5.11-1.12-8.12-3.29-9.73-7.14c-1.4-3.15-1.75-6.44-1.75-15.12c0-10.01,0.56-14,2.38-17.29
					c2.1-3.64,5.39-5.53,11.41-6.37c3.22-0.42,8.89-0.63,17.78-0.63c12.74,0,16.8,0.21,19.74,0.91c7.21,1.82,9.52,5.46,9.45,15.26
					H375.41z"/>
				<path class="st0" d="M400.61,16.38h40.25c8.26,0,11.9,0.7,14.56,2.94c2.73,2.17,3.99,6.16,3.99,12.46
					c0,8.68-2.1,12.11-8.05,13.44c5.81,0.98,7.56,3.43,7.42,10.5v7.35h-14.42v-5.81c-0.07-5.04-1.47-6.09-7.84-5.95h-21.77v11.76
					h-14.14V16.38z M436.94,39.9c6.86,0,8.19-0.84,8.19-5.46c0-3.01-0.28-4.27-1.19-5.25c-1.05-1.12-2.24-1.33-6.51-1.33h-22.68
					V39.9H436.94z"/>
				<path class="st0" d="M491.75,16.38h19.04l25.55,46.7H520.8l-4.62-8.33h-30.1l-4.48,8.33h-16.1L491.75,16.38z M511.21,45.01
					l-10.08-18.62l-9.94,18.62H511.21z"/>
				<path class="st0" d="M542.84,16.38h35.7c9.03,0,11.34,0.28,14.28,1.75c4.69,2.31,6.44,6.58,6.44,15.4
					c0,8.89-1.61,13.51-5.46,15.89c-2.73,1.68-5.88,2.17-14,2.17h-22.82v11.48h-14.14V16.38z M577.64,40.25
					c5.81,0,7.49-1.26,7.49-5.67c0-5.6-1.4-6.86-7.49-6.86h-20.65v12.53H577.64z"/>
				<path class="st0" d="M609.27,16.38h14.21v17.29h32.34V16.38h14.21v46.7h-14.21V45.22h-32.34v17.85h-14.21V16.38z"/>
				<path class="st0" d="M703.63,46.9l-26.67-30.52h18.13l15.75,19.32l15.61-19.32h17.78L717.92,46.9v16.17h-14.28V46.9z"/>
			</g>
		</g>
		<path class="st0" d="M760.2,76H1.8c-1.11,0-2-0.89-2-2V2c0-1.11,0.89-2,2-2H760.2c1.11,0,2,0.89,2,2v72
			C762.2,75.11,761.3,76,760.2,76z M3.8,72H758.2V4H3.8V72z"/>
	</g>
</g>
</svg>
