<?xml version="1.0" encoding="utf-8"?>
<!-- Generator: Adobe Illustrator 25.4.1, SVG Export Plug-In . SVG Version: 6.00 Build 0)  -->
<svg version="1.1" id="レイヤー_1" xmlns="http://www.w3.org/2000/svg" xmlns:xlink="http://www.w3.org/1999/xlink" x="0px"
	 y="0px" viewBox="0 0 350 76" style="enable-background:new 0 0 350 76;" xml:space="preserve">
<style type="text/css">
	.st0{fill:#FFFFFF;}
</style>
<g>
	<g>
		<g>
			<path class="st0" d="M17.69,16.38h22.54l17.01,31.01l16.94-31.01h22.4v46.7H82.73l0.7-36.05L62.71,63.08H51.37L30.99,27.02
				l0.42,36.05H17.69V16.38z"/>
			<path class="st0" d="M159.45,16.59c7.21,1.33,10.71,5.04,11.69,12.53c0.28,1.89,0.42,5.67,0.42,11.34
				c0,11.27-1.19,15.82-5.18,19.11c-2.8,2.38-6.72,3.5-13.51,3.78c-2.52,0.14-8.75,0.21-13.3,0.21c-11.13,0-16.8-0.21-19.6-0.77
				c-5.18-0.91-8.19-2.87-9.94-6.3c-1.82-3.43-2.24-6.86-2.24-17.08c0-7.84,0.14-9.8,0.98-12.95c1.33-4.97,4.06-7.63,9.31-9.17
				c3.92-1.12,8.19-1.4,20.51-1.4C152.03,15.89,156.16,16.03,159.45,16.59z M124.58,28.98c-1.89,1.47-2.45,3.78-2.45,10.5
				c0,6.86,0.56,9.38,2.31,10.85c1.89,1.54,4.2,1.82,14.91,1.82c12.25,0,14.77-0.42,16.38-2.66c1.33-1.68,1.68-4.06,1.68-10.29
				c0-11.76-0.21-11.9-17.71-11.9C129.27,27.3,126.4,27.65,124.58,28.98z"/>
			<path class="st0" d="M177.57,16.38h15.68l18.41,35.28l18.83-35.28h15.82l-25.83,46.7h-17.99L177.57,16.38z"/>
			<path class="st0" d="M253.38,16.38h14.21v46.7h-14.21V16.38z"/>
			<path class="st0" d="M331.5,16.38v10.57h-37.73V35h35.56v9.24h-35.56v8.26h38.22v10.57h-52.22v-46.7H331.5z"/>
		</g>
	</g>
	<path class="st0" d="M348,76H2c-1.11,0-2-0.89-2-2V2c0-1.11,0.89-2,2-2h346c1.11,0,2,0.89,2,2v72C350,75.11,349.11,76,348,76z
		 M4,72h342V4H4V72z"/>
</g>
</svg>
